<?xml version="1.0" encoding="utf-8"?>
<!-- Generator: Adobe Illustrator 26.5.0, SVG Export Plug-In . SVG Version: 6.00 Build 0)  -->
<svg version="1.0" id="Слой_1" xmlns="http://www.w3.org/2000/svg" xmlns:xlink="http://www.w3.org/1999/xlink" x="0px" y="0px"
	 viewBox="0 0 841.89 595.28" style="enable-background:new 0 0 841.89 595.28;" xml:space="preserve">
<style type="text/css">
	.st0{fill:#A67C52;}
	.st1{fill:#4C4E7A;}
</style>
<path class="st0" d="M446.5,454.02c0.26,0.76,0.57,1.53,0.87,2.29c-4.55,0.45-9.14,0.7-13.76,0.7c-21.31,0-41.99-4.86-60.73-13.64
	c0.58-0.61,1.17-1.19,1.74-1.81c18.24,8.41,38.31,13.08,58.99,13.08C437.93,454.65,442.23,454.42,446.5,454.02z M606.57,256.14
	h130.76c0.65,0,1.18-0.53,1.18-1.18c0-0.65-0.53-1.18-1.18-1.18H607.09C607.12,254.59,606.95,255.39,606.57,256.14z M300.89,253.77
	H73.29c-0.65,0-1.18,0.53-1.18,1.18c0,0.65,0.53,1.18,1.18,1.18h228.37c0.47,0,0.9-0.28,1.09-0.71
	c8.01-18.55,19.68-34.75,33.92-47.95c-0.43-0.69-0.85-1.36-1.27-2.05C320.95,218.73,309.09,235.07,300.89,253.77z M297.96,356.01
	c-0.16-0.49-0.61-0.82-1.13-0.82H73.29c-0.65,0-1.18,0.53-1.18,1.18c0,0.65,0.53,1.18,1.18,1.18h222.68
	c4.62,13.99,11.38,26.94,19.79,38.59c0.47-0.69,0.95-1.37,1.43-2.06C309,382.58,302.43,369.8,297.96,356.01z M737.33,357.56
	c0.65,0,1.18-0.53,1.18-1.18c0-0.65-0.53-1.18-1.18-1.18H577.8c0.98,0.74,1.95,1.54,2.91,2.37H737.33z M433.6,169.48
	c10.59,0,20.98,1.17,31.03,3.4l-1.57-2.74c-9.57-1.98-19.42-3.03-29.46-3.03c-22.65,0-44.42,5.27-63.92,14.85
	c0.55,0.61,1.1,1.21,1.66,1.83C390.36,174.56,411.56,169.48,433.6,169.48z M562.43,373.02c-5.09,10.65-11.48,20.53-18.93,29.49
	c0.29,0.86,0.6,1.71,0.93,2.57c7.88-9.28,14.63-19.58,19.98-30.7C563.76,373.88,563.1,373.43,562.43,373.02z M470.89,451.97
	c11.83-3.23,23.16-7.92,33.74-13.93c-0.69-0.53-1.39-1.04-2.1-1.54c-10.26,5.72-21.22,10.2-32.65,13.28
	C470.19,450.52,470.52,451.24,470.89,451.97z"/>
<path class="st0" d="M515.61,418.24c2.25-1.74,4.45-3.54,6.58-5.41c0.42,1.2,0.91,2.42,1.42,3.63c-0.93,0.23-1.8,0.64-2.56,1.26
	l-0.25,0.21c-0.75,0.61-1.29,1.44-1.56,2.37l-0.08,0.3c-0.03,0.11-0.08,0.19-0.11,0.3C517.9,419.95,516.75,419.07,515.61,418.24z
	 M737.33,346.9H565.1c-0.63,0-1.2,0.27-1.63,0.69c3.01,0.91,6.04,2.29,9.02,4.04h164.84c1.31,0,2.37-1.06,2.37-2.37
	C739.69,347.96,738.63,346.9,737.33,346.9z M554.72,370.02c-3.8,7.91-8.33,15.36-13.51,22.28c0.22,2.05,0.6,4.14,1.12,6.24
	c6.64-8.3,12.36-17.41,16.98-27.18C557.76,370.69,556.22,370.22,554.72,370.02z M606.3,264.42h131.03c1.31,0,2.37-1.06,2.37-2.37
	c0-1.31-1.06-2.37-2.37-2.37H605.03l0.88,1.74C606.39,262.37,606.49,263.42,606.3,264.42z M304.82,259.69H73.29
	c-1.31,0-2.37,1.06-2.37,2.37c0,1.31,1.06,2.37,2.37,2.37h233.12c0.97,0,1.85-0.59,2.2-1.5c7.4-18.79,18.59-35.15,32.5-48.39
	c-0.86-1.36-1.74-2.73-2.58-4.08C324.2,223.92,312.59,240.56,304.82,259.69z M373.73,186.43c1.09,1.22,2.2,2.47,3.3,3.7
	c17.32-8,36.51-12.37,56.57-12.37c12.67,0,25,1.76,36.73,5.06l-3.31-5.76c-10.76-2.63-21.95-4.03-33.43-4.03
	C412.34,173.03,391.99,177.77,373.73,186.43z M304.38,348.63c-0.29-1.02-1.22-1.72-2.28-1.72H73.29c-1.31,0-2.37,1.06-2.37,2.37
	c0,1.31,1.06,2.37,2.37,2.37h227.03c4.26,14.35,10.75,27.63,19.01,39.51c0.98-1.33,1.99-2.66,3.01-3.97
	C314.48,375.56,308.33,362.61,304.38,348.63z M445.45,450.58c-0.42-1.57-0.76-3.12-1-4.66c-3.59,0.29-7.2,0.45-10.85,0.45
	c-18.77,0-36.88-3.96-53.39-11.16c-1.06,1.26-2.16,2.48-3.25,3.71c17.47,7.85,36.69,12.19,56.64,12.19
	C437.58,451.1,441.53,450.92,445.45,450.58z M468.71,446.53c10.71-2.82,20.98-6.9,30.62-12.09c-1.7-1.01-3.42-1.89-5.15-2.65
	c-8.36,4.25-17.18,7.64-26.35,10.08C467.94,443.36,468.24,444.92,468.71,446.53z"/>
<path class="st1" d="M434,344.33c12.19,32.69,17.15,64.21,14.75,93.9c-1.16,18.83,16.91,44.1,38.68,54.08
	c17.05,7.82,33.4,5.34,46.09-7.03c0.24-0.26,0.46-0.52,0.69-0.79c8.79-10.58,7.27-27.25-3.25-43.37c1.67-1.6,3.75-2.46,6.39-2.51
	l0.37-0.01l0.28-0.23c0.08-0.07,0.16-0.14,0.24-0.24c0.31-0.37,0.55-0.96,0.39-1.91c-0.65-3.94-8.61-13.65-12.34-15.06
	c-1.13-0.43-1.84-0.13-2.23,0.2l-0.25,0.21l-0.09,0.32c-0.72,2.47-2.04,4.4-3.94,5.9c-11.88-11.05-21.97-14.78-40.3-15.44
	c-5.79-0.21-11.17-4.33-13.39-10.26c-6.31-16.84-10.38-39.82-11.78-66.46c0.9-2.27,1.69-4.45,2.48-6.61
	c1.02-0.09,2.04-0.17,3.08-0.28c25.28,8.67,46.28,18.9,60.75,29.61c5.1,3.78,7.44,10.15,5.97,16.24
	c-4.87,20.13-3.55,32.2,5.27,47.86c5.92,9.65,12.37,16.58,19.66,21.17c10.84,7.37,15.02,13.5,18.7,18.91
	c2.59,3.81,5.04,7.4,9.35,10.85c18.23,14.57,32.31,11.77,33.72,11.44c0.69-0.08,1.29-0.27,1.82-0.52c1.97-0.96,2.8-2.98,2.69-4.79
	c-0.15-2.54-2.12-5.09-5.57-5.05c-0.17,0-16.68-0.29-21.27-12.21c-1.66-4.31-2.11-9.38-1.32-15.07c0.61-4.39,2.3-8.5,4.88-11.91
	c2.59-3.41,4.54-7.26,5.8-11.42c3.98-13.13,1.13-29.43-7.83-44.7c-8.49-14.48-20.92-25.05-32.46-27.59
	c-12.75-2.55-26.28-5.79-38.81-12.23c-11.22-5.76-13.53-12.45-15.06-16.88c-0.76-2.18-1.35-3.91-2.78-4.84
	c-1.61-1.05-4.13-0.61-7.31-0.06c-5.01,0.87-11.25,1.96-16.55-1.81c-5.52-3.93-10.42-7.61-14.94-11.22
	c6.13-6.56,12.71-12.79,19.89-18.52c3.57-3.08,4.88-7.07,3.68-10.67c3.93-0.36,6.77-2.6,8.12-5.09c0.13-0.16,0.27-0.31,0.37-0.5
	l-0.09-0.05c0.02-0.04,0.05-0.09,0.07-0.13c0.85-1.99,0.76-4.05-0.15-5.76c6.67-2.31,13.69-7.64,16.35-16.55l9.34,16.27l0.9-0.1
	c33.51-3.88,57.66-2.39,73.83,4.55l0.95,0.41l3.88-4.83l-2.78-5.5l3.5-4.08l-0.51-0.85l-82.01-135.25c-0.77-1.27-1.82-2.3-3.04-2.98
	c-17.99-10.08-40.46-7.67-57.37,6.1c-4.65,0.29-8.57,1.07-11.65,2.31l-0.33,0.13l-3.38,4.2l44.62,77.72
	c0.1,5.6-0.13,9.26-3.93,10.02c-13.73,2.73-19.61,13.35-20.69,22.41c-1.74-0.49-3.61-0.17-5.29,1c-2.52,1.75-4.52,5.43-4.2,9.57
	c-3.81-0.45-7.47,1.67-9.71,5.83c-2.41,4.9-5.05,9.62-7.85,14.21c-48.28-59.76-91.68-107.9-132-146.39l-0.03-0.03
	c-1.06-0.96-2.51-1.04-3.51-0.21c-0.99,0.83-1.2,2.28-0.48,3.46l0.17,0.27l-1.67-1.84c-0.93-1.01-2.39-1.21-3.45-0.48
	c-1.08,0.73-1.39,2.15-0.74,3.47c27.61,52.46,64.74,111.27,113.1,179.16c-11.46,12.56-23.78,24.26-35.93,35.78
	c-34.26,32.49-66.63,63.18-73.98,107.7c-0.58,8.04,4.36,13.13,8.73,16.67c4.41,3.51,10.44,7.23,18.05,4.98
	c42.01-16.81,65.02-55.02,89.37-95.47C420.95,365.09,427.27,354.61,434,344.33z M405.08,379.29c-8.73,13.69-17.9,27.21-28.38,39.99
	c-10.46,12.76-22.28,24.79-36,34.9c12.6-11.22,23.33-23.77,33.05-36.82c9.73-13.06,18.49-26.63,27.22-40.3
	c8.72-13.67,17.41-27.47,26.94-40.98c0.6-0.84,1.2-1.68,1.81-2.52c0.52,1.24,1.04,2.49,1.55,3.73c-0.12,0.19-0.24,0.37-0.36,0.56
	C422.11,351.67,413.82,365.59,405.08,379.29z M412.18,311.03c0.8,1.12,1.61,2.25,2.42,3.37c-1.18,1.39-2.35,2.78-3.55,4.14
	c-14.52,16.4-30.13,31.32-45.25,46.53c-15.15,15.17-29.84,30.76-42.22,48.43l-2.33,3.31l-1.17,1.66c-0.38,0.56-0.71,1.15-1.07,1.72
	c-1.41,2.31-2.82,4.62-4.23,6.94c-1.45,2.3-2.82,4.65-4,7.08c-1.2,2.41-2.25,4.89-3.01,7.45c-1.49,5.07-1.81,10.77,0.9,15.54
	c1.3,2.37,3.18,4.46,5.51,5.95c1.19,0.71,2.47,1.26,3.84,1.58c1.38,0.27,2.81,0.29,4.23,0.05c-1.37,0.35-2.82,0.47-4.25,0.31
	c-1.42-0.21-2.81-0.64-4.1-1.29c-2.56-1.33-4.74-3.35-6.33-5.77c-1.63-2.37-2.63-5.28-2.9-8.16c-0.31-2.89-0.04-5.8,0.55-8.6
	c0.62-2.79,1.54-5.49,2.63-8.07c1.07-2.6,2.3-5.08,3.64-7.49c1.31-2.43,2.62-4.85,3.93-7.27l0.99-1.82l1.1-1.74l2.22-3.47
	c11.79-18.56,26.38-34.85,41.65-50.12c15.25-15.34,31.17-29.88,46.32-45.5C409.19,314.22,410.69,312.62,412.18,311.03z M452.3,291.7
	l-13.63-14.99c-2.01-2.38-4.04-4.74-6-7.16c0,0-2.1-2.6-4.21-5.21c-1.05-1.3-2.1-2.61-2.89-3.59c-0.79-0.98-1.34-1.61-1.39-1.58
	c-0.05,0.04,0.37,0.72,1.03,1.72c0.66,1,1.57,2.32,2.49,3.63c0.13,0.18,0.26,0.36,0.38,0.54l-39.09-43
	c-8.54-10.71-17.18-21.33-25.99-31.81c0,0-2.52-2.97-6.29-7.42c-3.78-4.44-8.89-10.32-14.05-16.14c-2.57-2.92-5.2-5.79-7.64-8.5
	c-2.47-2.68-4.78-5.18-6.76-7.33c-2.01-2.11-3.69-3.87-4.87-5.1c-0.6-0.61-1.07-1.08-1.39-1.41c-0.33-0.32-0.51-0.48-0.52-0.47
	c-0.02,0.02,0.12,0.2,0.4,0.54c0.28,0.33,0.7,0.82,1.22,1.44c1.07,1.22,2.6,2.96,4.44,5.05c1.83,2.09,3.97,4.54,6.26,7.16
	c2.27,2.63,4.7,5.44,7.12,8.25c9.66,11.27,19.06,22.75,19.06,22.75c2.73,3.32,5.43,6.66,8.13,10l-57.11-62.82l-7.49-12.08
	C348.42,167.1,397.18,222.01,452.3,291.7z M448.12,263.41c-1.78,3.93-3.75,7.74-5.81,11.5c-0.23-0.28-0.46-0.58-0.69-0.86
	C443.88,270.58,446.07,267.06,448.12,263.41z M452.33,263.58c2.73,3.89,5.72,7.11,8.99,10.03c3.28,2.9,6.85,5.53,11.1,7.77
	C462.91,279.83,455,272.85,452.33,263.58z M460.55,304.7l0.14,0.14c5.16,4.2,10.81,8.48,17.27,13.07
	c6.19,4.41,13.32,3.16,18.53,2.26c2.3-0.4,4.67-0.81,5.41-0.33c0.67,0.44,1.14,1.79,1.73,3.49c1.57,4.53,4.19,12.12,16.36,18.36
	c12.82,6.58,26.56,9.89,39.47,12.47c10.82,2.38,22.6,12.47,30.72,26.34c8.58,14.64,11.35,30.17,7.58,42.6
	c-1.17,3.87-2.98,7.43-5.38,10.59c-2.86,3.77-4.72,8.31-5.39,13.15c-0.85,6.14-0.36,11.66,1.47,16.39c0.05,0.13,0.12,0.25,0.18,0.38
	c-0.05-0.1-0.11-0.18-0.16-0.28c-1.83-3.69-2.77-7.83-2.8-12.09c-0.02-4.25,0.88-8.64,2.95-12.74c-5.67,7.24-6.68,17.69-2.61,25.94
	c4.05,8.26,12.94,13.85,22.15,13.77c-4.45-0.86-8.44-2.8-11.78-5.38c-0.46-0.35-0.87-0.75-1.31-1.13
	c7.16,5.23,16.58,5.41,17.14,5.42c1.92-0.02,2.86,1.27,2.93,2.56c0.07,1.1-0.49,2.35-2.25,2.54l-0.18,0.03
	c-0.13,0.03-13.8,3.24-31.51-10.92c-4.01-3.2-6.23-6.48-8.82-10.27c-3.81-5.6-8.14-11.96-19.44-19.63
	c-6.98-4.39-13.15-11.04-18.83-20.29c-8.41-14.94-9.67-26.52-4.98-45.89c1.73-7.13-1.01-14.58-6.97-18.99
	c-14.74-10.91-36.09-21.31-61.74-30.08l-0.27-0.09l-0.29,0.03c-12.06,1.2-22.37,1.41-31.51,0.66c-1.07-0.09-2.05-0.65-2.7-1.54
	c-55.66-76.63-97.47-141.9-127.79-199.47L460.55,304.7z M479.36,415.01c11.94,0.43,20.09,2.12,27.6,6.4
	c-0.35-0.18-0.7-0.37-1.06-0.54c-7.47-3.49-15.92-5.19-24.31-4.38c8.39,0.09,16.35,2.42,23.32,6.14
	c6.98,3.74,12.97,8.94,17.91,14.96c2.48,3.01,4.69,6.25,6.65,9.65c1.95,3.4,3.65,6.96,4.83,10.72c1.19,3.75,1.83,7.71,1.63,11.73
	c-0.2,4.01-1.24,8.08-3.41,11.69c2.52-3.32,4.02-7.36,4.58-11.48c0.11-0.81,0.16-1.63,0.2-2.44c0.03,6.2-1.82,11.73-5.7,16.01
	c-11.79,11.5-27.09,13.79-43.09,6.46c-20.89-9.58-38.24-33.65-37.14-51.49c2.76-34.14-4.08-70.66-20.33-108.54l-0.04-0.09
	l-0.13-0.21c4.71,0.29,9.72,0.33,15.09,0.13c-0.12,0.6-0.24,1.2-0.4,1.8c0,0-0.13,0.53-0.25,1.05c-0.12,0.53-0.24,1.08-0.12,1.13
	c0.11,0.05,0.46-0.36,0.76-0.8c0.3-0.44,0.56-0.91,0.56-0.91c0.41-0.76,0.78-1.55,1.12-2.35c0.29-0.01,0.6-0.03,0.89-0.05
	c-0.22,0.71-0.47,1.41-0.67,2.12c0,0-0.25,0.9-0.45,1.81c-0.2,0.91-0.36,1.83-0.24,1.87c0.12,0.04,0.52-0.76,0.9-1.56
	c0.37-0.8,0.74-1.6,0.74-1.6c0.4-0.92,0.87-1.81,1.29-2.71c0.33-0.02,0.65-0.03,0.98-0.05l-0.99,3.31l-0.59,2.05l-0.07,0.24l0,0.25
	l0.01,0.3l0.02,0.53l0.04,1.05c0.12,2.81,0.21,5.61,0.56,8.46c0.36,2.78,0.72,5.56,1.12,8.34c1.58,11.11,3.53,22.17,6.06,33.1
	c0,0,0.45,1.85,1.12,4.63c0.73,2.76,1.57,6.48,2.89,10.09c0.66,1.8,1.46,3.56,2.4,5.1c0.93,1.55,1.99,2.87,3.01,3.89
	c1.03,1.02,2,1.73,2.71,2.17c0.36,0.21,0.65,0.38,0.85,0.47c0.2,0.1,0.31,0.14,0.32,0.13c0.02-0.03-0.41-0.28-1.12-0.79
	c-0.7-0.51-1.66-1.3-2.65-2.4c-0.99-1.1-2-2.51-2.87-4.14c-0.88-1.63-1.61-3.47-2.21-5.35c-1.18-3.77-2-7.69-2.67-10.59
	c-0.63-2.92-1.06-4.86-1.06-4.86c-2.24-10.71-3.95-21.53-5.3-32.38c-0.34-2.71-0.66-5.44-0.95-8.14c-0.24-2.66-0.3-5.41-0.36-8.14
	l-0.02-1.02l-0.01-0.42l0.09-0.3l0.6-1.96l1.19-3.75c0.22-0.02,0.45-0.03,0.67-0.05c-0.69,1.87-1.36,3.72-2.13,5.67l-0.11,0.27
	l0.01,0.29c1.39,27.03,5.53,50.39,11.96,67.54C466.22,410.06,472.42,414.76,479.36,415.01z M535.66,436.69
	c-0.86-0.92-1.8-1.75-2.8-2.46c0,0-0.4-0.27-0.83-0.5c-0.43-0.23-0.88-0.4-0.96-0.3c-0.07,0.1,0.2,0.47,0.47,0.82
	c0.27,0.35,0.54,0.69,0.54,0.69c0.57,0.7,1.06,1.44,1.51,2.21c-0.17,0.05-0.32,0.12-0.48,0.18c-0.36-0.33-0.72-0.69-1.1-0.98
	c0,0-0.23-0.17-0.49-0.3c-0.26-0.14-0.55-0.24-0.64-0.15c-0.09,0.09,0,0.36,0.09,0.62c0.1,0.25,0.2,0.49,0.2,0.49
	c0.17,0.34,0.28,0.69,0.42,1.04c-0.12,0.07-0.23,0.15-0.35,0.22c-0.29-0.32-0.57-0.68-0.89-0.95c0,0-0.21-0.16-0.45-0.29
	c-0.24-0.13-0.5-0.21-0.59-0.13c-0.09,0.09-0.03,0.34,0.03,0.57c0.07,0.22,0.14,0.44,0.14,0.44c0.18,0.46,0.26,0.93,0.34,1.4
	c-0.02,0.02-0.04,0.04-0.06,0.06c-1.97-2.83-4.18-5.63-6.69-8.37c-0.32-0.32-0.63-0.62-0.94-0.93l1.02,0.38c0,0,1.04,0.36,1.18,0.15
	c0.14-0.21-0.55-1-0.55-1l-0.59-0.64c0.38,0.19,0.78,0.34,1.15,0.56c0,0,0.31,0.17,0.61,0.34c0.32,0.16,0.65,0.32,0.74,0.24
	c0.09-0.09-0.04-0.42-0.22-0.73c-0.17-0.31-0.38-0.59-0.38-0.59c-0.38-0.48-0.84-0.91-1.28-1.35c0.7,0.34,1.39,0.71,2.04,1.15
	c0,0,0.39,0.25,0.78,0.5c0.39,0.25,0.8,0.5,0.9,0.42c0.09-0.08-0.11-0.51-0.36-0.9c-0.25-0.39-0.54-0.75-0.54-0.75
	c-0.32-0.37-0.67-0.72-1.02-1.08c1.21,0.8,2.4,1.66,3.49,2.64c0,0,0.61,0.55,1.22,1.1c0.61,0.56,1.22,1.14,1.32,1.06
	c0.1-0.07-0.28-0.79-0.72-1.47c-0.44-0.68-0.95-1.31-0.95-1.31c-1.41-1.73-3.03-3.31-4.81-4.72c0.13-0.31,0.28-0.6,0.39-0.92
	c0.93,0.35,3.32,2.14,6.44,5.95c3.08,3.76,4.38,6.43,4.57,7.44C536.23,436.57,535.96,436.65,535.66,436.69z M309.96,444.72
	c8.81-19.24,19.71-36.69,32.65-52.55c12.95-15.85,27.93-30.15,45.19-42.85c-14.66,15.54-27.82,30.77-40.55,46.35
	C334.54,411.28,322.26,427.24,309.96,444.72z M598.93,253.62c-6.49-6.39-15.02-10.43-23.86-11.65c0,0-0.78-0.08-1.95-0.19
	c-0.58-0.08-1.27-0.07-2-0.1c-0.73-0.04-1.52-0.03-2.3,0.01c-3.13,0.07-6.19,0.74-6.16,0.89c0.03,0.18,3.24-0.17,6.44,0.04
	c0.8,0.02,1.59,0.11,2.34,0.19c0.75,0.06,1.44,0.16,2.02,0.27c0.59,0.1,1.08,0.18,1.42,0.23c0.34,0.08,0.53,0.12,0.53,0.12
	c4.81,0.96,9.41,2.84,13.53,5.43c-3.8-1.57-7.76-2.74-11.79-3.45c0,0-2.61-0.45-5.24-0.59c-2.63-0.17-5.26-0.01-5.26,0.15
	c0,0.17,2.73,0.35,5.4,0.8c1.34,0.21,2.67,0.47,3.66,0.7c0.99,0.21,1.64,0.39,1.64,0.39c4.45,1.09,8.74,2.76,12.75,4.92
	c-11.71-5.44-28.53-6.62-50.24-3.52c5.37-4.79,15.77-7.76,27.45-7.58C578.57,240.85,592.57,244.38,598.93,253.62z M462.4,122.21
	c16.18,25.57,32.08,51.32,47.69,77.25c0,0,5.33,8.85,10.67,17.71c2.67,4.43,5.34,8.85,7.34,12.17c1.01,1.65,1.86,3.03,2.45,3.99
	c0.6,0.96,0.96,1.5,1,1.48c0.03-0.02-0.27-0.63-0.83-1.67c-0.57-1.04-1.38-2.53-2.35-4.31c-1.99-3.54-4.65-8.26-7.31-12.98
	c-5.4-9.39-10.8-18.78-10.8-18.78c-14.93-25.66-30.16-51.15-45.66-76.48c0.95-0.66,1.91-1.29,2.89-1.88
	c13.85,21.98,27.46,44.11,40.85,66.38c0,0,4.63,7.69,9.27,15.38c2.32,3.84,4.65,7.68,6.39,10.56c0.89,1.43,1.62,2.63,2.14,3.46
	c0.53,0.83,0.84,1.29,0.88,1.27c0.03-0.02-0.22-0.55-0.7-1.46c-0.49-0.91-1.19-2.2-2.03-3.75c-1.72-3.08-4.01-7.19-6.31-11.29
	c-4.67-8.17-9.33-16.34-9.33-16.34c-12.71-21.98-25.64-43.83-38.8-65.54c1.02-0.54,2.05-1.04,3.09-1.51l33.69,55.46
	c0,0,3.91,6.38,7.83,12.76c1.98,3.18,3.96,6.36,5.44,8.74c0.76,1.18,1.39,2.17,1.83,2.86c0.45,0.68,0.73,1.07,0.76,1.05
	c0.04-0.02-0.18-0.46-0.58-1.22c-0.41-0.75-1-1.83-1.71-3.12c-1.45-2.56-3.38-5.97-5.31-9.38c-3.91-6.8-7.81-13.6-7.81-13.6
	l-31.61-54.59c1.1-0.43,2.21-0.81,3.33-1.16l26.56,43.91c0,0,3.1,5.06,6.2,10.12c1.57,2.52,3.14,5.04,4.32,6.93
	c1.2,1.88,2.02,3.12,2.09,3.08c0.07-0.04-0.64-1.42-1.76-3.47c-1.13-2.04-2.63-4.76-4.14-7.48c-3.05-5.42-6.11-10.84-6.11-10.84
	l-24.49-43.01c1.19-0.3,2.39-0.54,3.59-0.75l19.15,31.88c0,0,2.25,3.69,4.51,7.38c1.15,1.83,2.3,3.66,3.16,5.04
	c0.88,1.36,1.49,2.26,1.56,2.22c0.07-0.04-0.42-1.06-1.2-2.57c-0.8-1.5-1.86-3.5-2.92-5.5c-2.17-3.98-4.33-7.95-4.33-7.95
	l-17.07-30.9c1.29-0.14,2.58-0.22,3.87-0.26l11.43,19.27c0,0,5.42,9.04,5.7,8.89c0.28-0.16-4.75-9.99-4.75-9.99l-9.36-18.16
	c7.17,0.26,14.25,2.17,20.71,5.79c0.81,0.45,1.51,1.15,2.04,2.01L593.77,245c-0.19-0.13-0.39-0.26-0.59-0.38
	c-7.18-10.77-14.07-21.74-20.71-32.86c0,0-2.27-3.81-4.55-7.62c-1.14-1.9-2.28-3.81-3.14-5.24c-0.86-1.43-1.47-2.36-1.54-2.32
	c-0.07,0.04,0.41,1.1,1.17,2.67c0.77,1.57,1.82,3.65,2.9,5.71c2.15,4.13,4.39,8.21,4.39,8.21c5.38,9.77,10.97,19.43,16.78,28.97
	c-0.21-0.09-0.44-0.17-0.65-0.26l-8.99-13.64c0,0-4.22-6.33-4.5-6.16c-0.28,0.17,3.52,7.17,3.52,7.17l6.13,11.21
	c-0.1-0.03-0.2-0.06-0.29-0.09l-2.48-3.87c0,0-1.25-1.87-1.55-1.74c-0.3,0.13,0.35,2.4,0.35,2.4l0.72,2.4
	c-4.11-0.99-8.6-1.56-13.38-1.63c-13.42-0.21-25.39,3.67-30.82,9.8L461.8,122.67C462,122.52,462.2,122.37,462.4,122.21z
	 M447.42,127.9l0.75-0.93l52.28,87.84c0,0,24.17,40.52,24.45,40.36c0.28-0.16-24.42-42.99-24.42-42.99l-50.15-86.86
	c2.47-0.79,5.47-1.31,8.92-1.55l76.44,127.89l0.91-0.15c28.27-4.56,48.32-2.11,59.58,7.25l0.71,1.4
	c-6.39-3.14-13.25-5.07-20.16-6.18c-8.36-1.31-16.83-1.69-25.23-1.18c0,0-1.43,0.11-3.57,0.27c-2.13,0.23-4.98,0.55-7.79,1.07
	c-2.82,0.49-5.6,1.19-7.64,1.83c-1.03,0.3-1.85,0.68-2.43,0.9c-0.58,0.24-0.9,0.39-0.89,0.43c0.04,0.1,1.46-0.37,3.61-0.9
	c2.17-0.5,5.08-1.08,8.02-1.42c1.47-0.19,2.94-0.37,4.33-0.46c1.39-0.11,2.67-0.24,3.79-0.26c1.11-0.05,2.04-0.09,2.68-0.11
	c0.65-0.03,1.02-0.03,1.02-0.03c8.14-0.15,16.3,0.45,24.27,1.97c7.42,1.48,14.7,3.89,21.1,7.69l-1.05,1.3
	c-16.45-6.73-40.48-8.18-73.37-4.45l-12.72-22.16c0-0.05,0.01-0.09,0.02-0.14l-0.1,0L447.42,127.9z M485.33,218.06
	c4.48-0.89,5.73-4.33,6.05-8.07l0.48,0.84l-0.19,0.09c1.03,2,0.02,4.83-1.82,6.73c-1.81,1.93-4.58,3.08-7.29,4.33
	c-2.75,1.21-5.57,2.87-7.67,5.18c-2.15,2.26-3.76,5.01-4.68,7.97c0,0-0.33,1.01-0.59,2.56c-0.26,1.55-0.35,3.66-0.06,5.72
	c0.27,2.06,0.92,4.05,1.59,5.44c0.66,1.4,1.28,2.22,1.34,2.19c0.08-0.05-0.41-0.99-0.93-2.48c-0.53-1.49-1-3.54-1.11-5.62
	c-0.11-2.08,0.14-4.15,0.52-5.64c0.38-1.5,0.78-2.44,0.78-2.44c1.06-2.61,2.68-4.99,4.75-6.89c1.03-0.95,2.16-1.78,3.37-2.46
	c1.21-0.69,2.52-1.24,3.87-1.8c2.67-1.13,5.61-2.16,7.97-4.53c1.11-1.15,2.04-2.51,2.58-4.11l0.25,0.43
	c0.1,0.87-0.02,1.72-0.45,2.53c-0.45,0.88-1.19,1.69-2.06,2.41c-1.77,1.45-3.89,2.56-6.11,3.53c-2.22,0.99-4.6,1.95-6.72,3.46
	c-2.11,1.54-3.81,3.58-4.94,5.88c0,0-0.41,0.77-0.83,2c-0.44,1.22-0.83,2.93-0.9,4.65c-0.09,1.72,0.16,3.44,0.51,4.66
	c0.33,1.23,0.77,1.98,0.81,1.96c0.11-0.04-0.19-0.87-0.36-2.16c-0.19-1.28-0.26-3.01-0.01-4.69c0.23-1.69,0.77-3.31,1.29-4.47
	c0.53-1.15,0.99-1.86,0.99-1.86c1.21-1.96,2.84-3.66,4.79-4.82c1.96-1.19,4.2-1.96,6.46-2.86c2.29-0.88,4.57-1.96,6.64-3.53
	c1.02-0.8,2.04-1.75,2.74-3.03c0.05-0.08,0.08-0.17,0.12-0.25l11.59,20.19c-0.27,3.8-1.59,7.55-3.76,10.76
	c-2.36,3.47-5.77,6.22-9.72,7.83c0,0-2.68,1.15-5.59,1.55c-2.9,0.48-5.87,0.14-5.89,0.31c-0.04,0.15,3.08,0.87,6.28,0.57
	c1.59-0.12,3.17-0.43,4.32-0.76c1.16-0.32,1.91-0.62,1.91-0.62c4.15-1.52,7.86-4.33,10.52-7.93c1.81-2.43,3.15-5.23,3.95-8.19
	l0.68,1.19c-2.31,13.39-14.51,17.29-16.96,17.94c-4.36,1.16-11.81,0.61-18.46-4.73l-0.12-0.1c-6.65-5.35-8.79-12.5-8.6-17.01
	C467.03,231.47,472.13,220.68,485.33,218.06z M462.54,240.55l0.01,0.01l0,0C462.55,240.56,462.54,240.56,462.54,240.55
	C462.54,240.55,462.53,240.55,462.54,240.55L462.54,240.55L462.54,240.55L462.54,240.55z M460.29,241.1c0,0.08,0,0.16,0.01,0.23
	l-0.2-0.07C460.17,241.21,460.23,241.14,460.29,241.1z M457.65,245.14c0.21,1.02,0.49,1.99,0.82,2.92c0.81,2.29,1.87,4.47,3.15,6.5
	c0,0,0.87,1.39,1.91,2.63c1.02,1.26,2.21,2.36,2.33,2.26c0.12-0.11-0.84-1.48-1.65-2.91c-0.84-1.42-1.54-2.91-1.54-2.91
	c-0.98-2.03-1.75-4.15-2.27-6.31c-0.54-2.14-0.81-4.34-0.08-5.96c0.06,0.61,0.21,1.04,0.29,1.58c0.31,1.39,0.71,2.76,1.2,4.09
	c1,2.65,2.33,5.16,3.97,7.43c0,0,1.11,1.55,2.45,2.89c1.32,1.36,2.84,2.48,2.94,2.37c0.11-0.13-1.23-1.54-2.35-3.1
	c-1.15-1.54-2.1-3.2-2.1-3.2c-1.32-2.27-2.34-4.69-3.02-7.19c-0.34-1.25-0.58-2.52-0.75-3.79c-0.06-0.6-0.19-1.41-0.11-1.64
	c0.01-0.06,0.03-0.08,0.04-0.08l0,0c-0.09-0.04-0.16-0.08-0.21-0.1c-0.03-0.05-0.06-0.12-0.07-0.21c-0.01-0.05,0-0.08,0-0.11
	c0.43,0.01,0.88,0.1,1.35,0.33c0.05,5.16,2.56,12.76,9.62,18.44l0.12,0.1c7.04,5.66,14.98,6.48,20.03,5.44
	c0.38,0.5,0.61,1.06,0.7,1.66l0,0c0.01,0.01,0.01,0.05,0.01,0.08c0,0.01,0,0.03,0,0.04c-0.03,0.16-0.18,0.43-0.46,0.62
	c-0.38,0.28-1.03,0.47-1.72,0.64c-1.36,0.34-2.77,0.51-4.19,0.52c0,0-0.97,0.03-1.95-0.03c-0.99-0.04-1.98-0.16-2.03,0
	c-0.05,0.15,0.92,0.62,1.96,0.93c1.04,0.32,2.12,0.47,2.12,0.47c1.48,0.21,3,0.25,4.52,0.11c0.14-0.01,0.28-0.03,0.43-0.04
	c-0.78,0.43-1.85,0.7-2.92,0.77c-1.89,0.17-3.81,0.1-5.71-0.21c0,0-1.3-0.19-2.58-0.51c-1.29-0.3-2.56-0.74-2.64-0.59
	c-0.07,0.14,1.13,0.92,2.45,1.51c1.31,0.6,2.72,0.98,2.72,0.98c1.59,0.44,3.23,0.7,4.9,0.81c-0.97,0.26-2.04,0.39-3.24,0.29
	c-0.15-0.01-8.47-0.38-17.37-7.54c-8.9-7.15-11.06-15.2-11.08-15.27C457.16,248.16,457.25,246.56,457.65,245.14z M447.34,255.43
	c1.46-2.71,4.29-5.13,7.87-4.15c0.76,2.29,3.64,9.41,11.78,15.94c8.11,6.52,15.67,7.81,18.1,8.07c1.73,3.29-0.03,6.57-2.4,8.62
	c-6.99,5.58-13.41,11.63-19.41,17.98c-0.17-0.45-0.39-0.88-0.66-1.29c5.95-6.27,12.3-12.23,19.22-17.76
	c0.83-0.72,3.41-3.27,2.32-6.29c-3.35-0.47-10.43-2.16-18.03-8.27c-7.6-6.11-10.78-12.66-11.95-15.83
	c-1.85-0.24-3.27,0.69-4.24,1.71c3.4,6.66,7.98,12.1,13.34,16.6c5.44,4.51,11.72,8.14,19.09,10.26
	c-15.2-1.2-28.42-12.12-32.46-26.82c-0.68,0.72-1.14,1.47-1.36,1.87c-2.67,5.43-5.62,10.64-8.74,15.69
	c-0.31-0.38-0.61-0.75-0.91-1.13C441.9,265.75,444.75,260.7,447.34,255.43z M412.36,374.06c-24.11,40.05-46.89,77.87-87.93,94.3
	c-6.25,1.84-11.32-1.26-15.44-4.53c-4.08-3.31-8.2-7.6-7.73-14.22c7.19-43.48,39.23-73.87,73.15-106.03
	c12.05-11.42,24.27-23.02,35.67-35.47c0.27,0.38,0.54,0.76,0.81,1.14c-11.37,12.4-23.55,23.94-35.55,35.32
	c-33.75,32.01-65.63,62.23-72.75,105.27c-0.41,5.87,3.43,9.84,7.24,12.94c3.85,3.06,8.54,5.96,14.2,4.29
	c40.49-16.21,63.15-53.85,87.14-93.69c6.77-11.25,13.63-22.62,21-33.72c0.21,0.52,0.4,1.04,0.6,1.57
	C425.64,352.03,418.95,363.1,412.36,374.06z M464.64,427.97c-0.02,0.03-0.04,0.05-0.07,0.08c-7.59,9.13-4.27,24.92,7.01,38.03
	c-0.43-0.47-0.9-0.91-1.31-1.4c-4.73-5.38-8.46-11.75-11.05-18.84c1.72,7.3,4.92,14.2,9.43,20.04c2.18,2.98,4.77,5.61,7.47,8.09
	c1.42,1.16,2.78,2.4,4.3,3.42c0.75,0.53,1.48,1.08,2.25,1.58l2.35,1.42c0.77,0.49,1.59,0.91,2.41,1.32
	c0.82,0.41,1.63,0.84,2.46,1.23l2.54,1.05c0.43,0.17,0.85,0.36,1.28,0.51l1.31,0.43c0.88,0.28,1.75,0.57,2.63,0.83l2.69,0.64
	c0.45,0.1,0.89,0.22,1.35,0.3l1.37,0.21l2.74,0.4c3.66,0.38,7.52,0.39,11.15-0.8c3.59-1.17,6.92-3.65,8.39-7.14
	c-1.87,3.24-5.23,5.18-8.63,5.97c-3.45,0.8-7.03,0.54-10.51-0.03c-0.22-0.04-0.43-0.09-0.65-0.13c8.3,0.8,15.16-1.44,19.38-6.47
	c0.02-0.03,0.04-0.05,0.07-0.08c4.4-5.29,5.34-12.9,2.64-21.42c-2.64-8.36-8.49-16.66-16.47-23.36
	c-7.97-6.71-17.15-11.05-25.84-12.22C476.45,420.41,469.09,422.67,464.64,427.97z M485,424.24c8.2,1.11,16.89,5.23,24.49,11.62
	c7.6,6.39,13.15,14.25,15.65,22.14c2.41,7.64,1.65,14.36-2.15,18.94c-0.02,0.02-0.04,0.04-0.06,0.07
	c-3.85,4.58-10.37,6.51-18.34,5.43c-8.2-1.11-16.89-5.23-24.49-11.62c-15.48-13.02-21.51-31.42-13.49-41.07
	c0.02-0.02,0.04-0.05,0.06-0.07C470.51,425.09,477.03,423.16,485,424.24z M495.64,420.02c9.15,2.71,17.24,7.68,23.75,14.13
	c6.51,6.46,11.48,14.47,14.22,23.49c-3.91-8.67-9.24-16-15.55-22.28C511.71,429.11,504.34,423.85,495.64,420.02z M508.82,488.88
	c-10.18,0.41-20.05-2.67-28.22-8.05c-8.17-5.39-14.81-13.22-18.4-22.62c4.75,8.97,11.59,15.95,19.48,21.18
	C489.59,484.56,498.71,488.08,508.82,488.88z M450.27,387.97c-0.46-1.86-1.08-4.34-1.7-6.83c-1.26-4.96-2.65-9.88-2.65-9.88
	c-3.78-13.53-8.45-26.81-13.91-39.73l1.96-0.8c5.29,13.43,9.7,27.19,13.21,41.16c0,0,1.19,4.75,2.19,9.54
	c0.51,2.39,0.97,4.79,1.29,6.6c0.31,1.81,0.5,3.02,0.44,3.03c-0.03,0.01-0.13-0.3-0.27-0.84
	C450.69,389.68,450.5,388.9,450.27,387.97z M545.79,364.03c-6.31,2.83-10.5,9.29-11.79,18.18c-0.74,5.1-0.44,10.66,0.77,16.3
	c-1.49-5.65-2.34-11.58-2.36-17.73c-1.76,13.04,1.1,26.22,7.59,37.22c3.3,5.45,7.38,10.55,12.62,14.43c2.6,1.94,5.48,3.57,8.59,4.64
	c3.09,1.11,6.44,1.53,9.7,1.26c-6.54-0.31-12.3-3.41-16.93-7.41c-0.8-0.68-1.54-1.42-2.28-2.16c8.46,7.66,18.34,10.77,26.33,7.19
	c0.17-0.08,0.33-0.15,0.5-0.23c12.4-6.06,15.4-26.58,6.63-46.15C576.27,369.75,558.61,358.29,545.79,364.03z M582.75,390.66
	c8.19,18.27,5.75,37.25-5.37,42.69c-0.14,0.07-0.28,0.14-0.43,0.2c-11.49,5.15-27.58-5.71-35.87-24.21
	c-4.06-9.06-5.64-18.55-4.46-26.74c1.15-7.97,4.78-13.7,10.26-16.15C558.36,361.3,574.46,372.16,582.75,390.66z M550.47,427.57
	c0.34,0.33,0.67,0.68,1.01,0.99C551.14,428.23,550.79,427.91,550.47,427.57z M442.51,302.05c-1.97-0.95-4.2-1.08-6.27-0.35
	c-4.26,1.49-6.52,6.18-5.03,10.45c1.49,4.27,6.18,6.52,10.45,5.03c0.31-0.11,0.61-0.24,0.91-0.38c1.65-0.8,2.97-2.13,3.77-3.8
	c0.95-1.97,1.07-4.2,0.35-6.26C445.96,304.66,444.48,303,442.51,302.05z M433.2,311.44c-1.03-2.94,0.34-6.14,3.07-7.47
	c0,0,0.01,0,0.01-0.01c-0.83,0.65-1.45,1.54-1.64,2.55c0.96-0.58,1.88-0.8,2.69-0.91c0.82-0.1,1.54-0.07,2.21,0.02
	c0.67,0.1,1.37,0.28,2.13,0.6c0.75,0.33,1.57,0.8,2.33,1.62c0.1-0.87-0.13-1.75-0.58-2.53c0.55,0.6,0.99,1.31,1.26,2.1l0,0
	c0.54,1.53,0.44,3.18-0.26,4.65c-0.24,0.49-0.55,0.92-0.89,1.32c0.72-1.31,0.85-2.95,0.2-4.18c-0.27,1.37-1.03,2.34-1.84,3.03
	c-0.83,0.69-1.74,1.09-2.61,1.18c-0.87,0.09-1.85-0.1-2.81-0.61c-0.94-0.52-1.89-1.33-2.42-2.63c-0.35,1.21,0.01,2.63,0.81,3.74
	C434.15,313.26,433.55,312.43,433.2,311.44z M380.15,254.57c-12.55-17.91-24.81-36.02-36.68-54.39c0,0-8.06-12.48-15.75-25.19
	c-1.91-3.19-3.81-6.37-5.6-9.36c-1.75-3.01-3.38-5.82-4.78-8.23c-1.36-2.43-2.49-4.45-3.29-5.87c-0.38-0.72-0.69-1.28-0.89-1.66
	c-0.2-0.39-0.3-0.6-0.28-0.61c0.02-0.01,0.16,0.19,0.42,0.57c0.24,0.38,0.6,0.95,1.06,1.67c0.89,1.45,2.16,3.52,3.69,6
	c1.54,2.48,3.33,5.37,5.25,8.47c1.94,3.08,4.02,6.37,6.09,9.66c4.17,6.56,8.4,13.08,11.61,17.95c3.22,4.86,5.36,8.1,5.36,8.1
	c11.83,17.8,24.07,35.32,36.56,52.67c6.24,8.67,12.54,17.31,18.9,25.9l2.38,3.21c0.75,1.01,1.61,1.94,2.52,2.82
	c0.59,0.57,1.25,1.07,1.9,1.59c-15.28-20.75-30.09-41.84-44.37-63.27c0,0-5.25-7.89-10.37-15.87c-2.57-3.98-5.1-7.99-6.98-11.01
	c-0.93-1.51-1.71-2.78-2.25-3.66c-0.26-0.45-0.47-0.8-0.61-1.04c-0.14-0.24-0.2-0.37-0.19-0.38c0.01-0.01,0.11,0.11,0.28,0.35
	c0.17,0.24,0.41,0.59,0.72,1.03c0.61,0.9,1.48,2.19,2.52,3.73c2.07,3.09,4.84,7.21,7.61,11.34c5.58,8.21,11.17,16.42,11.17,16.42
	c15.26,22.26,31.1,44.12,47.44,65.59c0.69,0.34,1.4,0.66,2.12,0.95l-25.78-35.89c0,0-12.57-17.56-12.37-17.71
	c0.2-0.15,13.83,17.91,13.83,17.91l27.71,36.79c0.29,0.07,0.58,0.16,0.87,0.22c0.22,0.05,0.44,0.07,0.66,0.11l-16.04-22.73
	c0,0-8.11-11.56-7.91-11.71c0.2-0.15,9.16,11.63,9.16,11.63l17.54,23.13c0.74,0.03,1.48,0.04,2.22,0l-3.9-5.89c0,0-2.51-3.85-2.31-4
	c0.2-0.15,3.29,3.55,3.29,3.55l5.06,6.12c1.46-0.19,2.7-0.46,3.88-0.73c1.24-0.28,2.31-0.51,3.2-0.65c1.77-0.29,2.8-0.19,2.95,0.17
	c0.16,0.37-0.5,0.99-2.06,1.83c-0.78,0.42-1.8,0.9-3.09,1.37c-1.26,0.47-2.91,0.98-4.81,1.2c-11.83,1.48-23.1-5.98-28.63-15.48
	C392.75,272.44,386.42,263.53,380.15,254.57z M567.1,358.81c11.42,6.99,20.95,16.65,26.44,28.53c2.73,5.93,4.37,12.35,4.72,18.9
	c0.34,6.54-0.64,13.23-3.2,19.36c1.71-6.49,1.94-13.04,1.16-19.31c-0.79-6.28-2.58-12.31-5.18-17.95
	C585.78,377.06,577.46,367.25,567.1,358.81z M588.73,388.79c-3.96-8.72-9.55-16.76-17.22-23.53c8.44,5.85,14.85,13.89,18.9,22.89
	c4.04,9,5.77,19.07,4.55,29.14C594.96,407.05,592.64,397.53,588.73,388.79z M557.59,437.65c-8.2-4.53-14.82-11.14-19.5-18.86
	c-4.66-7.73-7.42-16.67-7.62-26.03c1.4,9.28,4.67,17.66,9.21,25.18C544.24,425.44,550.13,432.15,557.59,437.65z M576.78,465.52
	c-2.96-4.49-6.09-8.42-9.45-12.14c-3.37-3.71-6.97-7.22-11.15-10.6C565.84,447.57,573.05,455.54,576.78,465.52z M582.78,459.75
	c0.95,4.14,2.89,8.12,6.08,11.61c-3.99-2.57-6.83-6.71-7.84-11.26c-1.02-4.55-0.21-9.48,2.28-13.45
	C581.92,451.17,581.87,455.6,582.78,459.75z M530.19,368.11c-0.05-1.76-0.48-3.47-1.21-5.01c-0.75-1.53-1.75-2.92-2.91-4.14
	c-2.29-2.48-5.2-4.23-7.96-6.16c-5.59-3.74-11.26-7.2-17.07-10.4c-5.82-3.18-11.77-6.13-17.92-8.84
	c-6.16-2.69-12.52-5.15-19.16-7.36c6.83,1.65,13.41,3.7,19.75,6.15c6.34,2.47,12.44,5.32,18.33,8.54
	c5.87,3.25,11.53,6.87,16.97,10.88c1.35,1.02,2.69,2.03,4.03,3.1c1.34,1.08,2.58,2.3,3.69,3.64c1.1,1.34,2.03,2.85,2.67,4.48
	C530.01,364.61,530.3,366.37,530.19,368.11z M506.18,335.1c-2.98-3.48-4.57-8.01-4.63-12.62c1.83,4.25,4.05,7.8,6.71,10.9
	c2.67,3.09,5.81,5.77,9.82,7.97C513.47,340.9,509.13,338.59,506.18,335.1z M457.28,323.88c-4.94,1.04-9.88,1.71-14.78,2.03
	c-2.45,0.16-4.89,0.23-7.33,0.22c-1.22-0.01-2.43-0.04-3.64-0.08l-1.82-0.09l-2.39-0.17l-3.11-3.92l-2.7-3.5
	c-1.79-2.35-3.55-4.72-5.3-7.12c-3.49-4.82-6.92-9.77-10.33-14.94c4.18,4.56,8.18,9.08,12.02,13.62c1.92,2.27,3.81,4.55,5.67,6.83
	l2.76,3.44l2.36,3.01c-0.26-0.02,0.69,0.06,1.21,0.11l1.79,0.14l3.59,0.24c2.4,0.14,4.8,0.24,7.22,0.31
	C447.35,324.14,452.26,324.1,457.28,323.88z"/>
<g>
	<path class="st1" d="M74.17,334.27v-55.78h24.19c4.24,0,7.81,0.57,10.71,1.72c2.9,1.15,5.08,2.76,6.55,4.85
		c1.47,2.08,2.21,4.54,2.21,7.36c0,2.05-0.45,3.92-1.35,5.62c-0.9,1.7-2.15,3.11-3.76,4.25s-3.5,1.92-5.67,2.34v0.6
		c2.4,0.07,4.57,0.67,6.53,1.78c1.96,1.11,3.52,2.65,4.68,4.61s1.74,4.25,1.74,6.87c0,3.04-0.79,5.76-2.36,8.14
		c-1.57,2.38-3.82,4.26-6.74,5.62c-2.92,1.36-6.4,2.04-10.45,2.04H74.17z M89.29,301.03h6.21c1.32,0,2.49-0.21,3.5-0.62
		c1.01-0.41,1.8-1.01,2.38-1.8c0.57-0.79,0.86-1.75,0.86-2.9c0-1.7-0.62-3.01-1.85-3.93c-1.24-0.92-2.79-1.39-4.66-1.39h-6.44
		V301.03z M89.29,322.22h7.11c2.52,0,4.42-0.49,5.71-1.46c1.29-0.97,1.93-2.38,1.93-4.23c0-1.32-0.3-2.44-0.9-3.35
		s-1.45-1.6-2.56-2.08c-1.11-0.47-2.43-0.71-3.95-0.71h-7.34V322.22z"/>
	<path class="st1" d="M138.04,334.27h-16.32l18.42-55.78h20.67l18.42,55.78H162.9l-12.21-40.43h-0.45L138.04,334.27z M135.04,312.26
		h30.7v11.31h-30.7V312.26z"/>
	<path class="st1" d="M182.74,334.27v-55.78h24.04c4.14,0,7.77,0.75,10.88,2.27c3.11,1.51,5.53,3.68,7.26,6.51
		c1.73,2.83,2.6,6.22,2.6,10.17c0,3.99-0.89,7.36-2.66,10.11c-1.77,2.75-4.26,4.82-7.45,6.21s-6.91,2.1-11.16,2.1h-14.38V304.1
		h11.31c1.8,0,3.33-0.22,4.6-0.68c1.27-0.45,2.25-1.16,2.92-2.13s1.01-2.26,1.01-3.86c0-1.6-0.34-2.9-1.01-3.89
		s-1.65-1.74-2.92-2.21c-1.27-0.47-2.81-0.71-4.6-0.71h-5.32v43.65H182.74z M212.91,334.27l-13.63-25.61h16.1l14,25.61H212.91z"/>
	<path class="st1" d="M232.16,334.27v-55.78h24.19c4.24,0,7.81,0.57,10.71,1.72c2.9,1.15,5.08,2.76,6.55,4.85
		c1.47,2.08,2.21,4.54,2.21,7.36c0,2.05-0.45,3.92-1.35,5.62c-0.9,1.7-2.15,3.11-3.76,4.25s-3.5,1.92-5.67,2.34v0.6
		c2.4,0.07,4.57,0.67,6.53,1.78c1.96,1.11,3.52,2.65,4.68,4.61s1.74,4.25,1.74,6.87c0,3.04-0.79,5.76-2.36,8.14
		c-1.57,2.38-3.82,4.26-6.74,5.62c-2.92,1.36-6.4,2.04-10.45,2.04H232.16z M247.28,301.03h6.21c1.32,0,2.49-0.21,3.5-0.62
		c1.01-0.41,1.8-1.01,2.38-1.8c0.57-0.79,0.86-1.75,0.86-2.9c0-1.7-0.62-3.01-1.85-3.93c-1.24-0.92-2.79-1.39-4.66-1.39h-6.44
		V301.03z M247.28,322.22h7.11c2.52,0,4.42-0.49,5.71-1.46c1.29-0.97,1.93-2.38,1.93-4.23c0-1.32-0.3-2.44-0.9-3.35
		s-1.45-1.6-2.56-2.08c-1.11-0.47-2.43-0.71-3.95-0.71h-7.34V322.22z"/>
	<path class="st1" d="M281.57,334.27v-55.78h40.21v12.21H296.7v9.44h22.99v11.9H296.7v10.03h24.93v12.21H281.57z"/>
	<path class="st1" d="M327.47,334.27v-55.78h24.04c4.14,0,7.77,0.75,10.88,2.27c3.11,1.51,5.53,3.68,7.26,6.51
		c1.73,2.83,2.6,6.22,2.6,10.17c0,3.99-0.89,7.36-2.66,10.11c-1.77,2.75-4.26,4.82-7.45,6.21s-6.91,2.1-11.16,2.1h-14.38V304.1
		h11.31c1.8,0,3.33-0.22,4.6-0.68c1.27-0.45,2.25-1.16,2.92-2.13s1.01-2.26,1.01-3.86c0-1.6-0.34-2.9-1.01-3.89
		s-1.65-1.74-2.92-2.21c-1.27-0.47-2.81-0.71-4.6-0.71h-5.32v43.65H327.47z M357.65,334.27l-13.63-25.61h16.1l14,25.61H357.65z"/>
</g>
<g>
	<path class="st1" d="M561.47,334.95c-4.84,0-9.07-0.72-12.67-2.15s-6.41-3.65-8.41-6.64c-2-3-3.01-6.83-3.03-11.49h14.38
		c0.1,1.7,0.53,3.13,1.29,4.3c0.76,1.17,1.83,2.06,3.22,2.66c1.39,0.6,3.05,0.9,5,0.9c1.62,0,2.98-0.2,4.08-0.6
		c1.1-0.4,1.93-0.96,2.49-1.67c0.56-0.71,0.84-1.53,0.84-2.45c0-0.85-0.27-1.59-0.8-2.23c-0.54-0.64-1.42-1.22-2.64-1.74
		c-1.22-0.52-2.87-1-4.94-1.42l-5.62-1.2c-4.92-1.05-8.79-2.84-11.62-5.37s-4.25-5.98-4.25-10.35c0-3.54,0.96-6.65,2.88-9.3
		s4.57-4.73,7.96-6.21c3.38-1.48,7.28-2.23,11.7-2.23c4.52,0,8.42,0.76,11.7,2.27c3.28,1.51,5.82,3.63,7.6,6.36s2.69,5.92,2.71,9.57
		h-14.53c-0.12-1.82-0.79-3.24-2-4.25c-1.21-1.01-3.04-1.52-5.48-1.52c-1.55,0-2.82,0.18-3.82,0.54c-1,0.36-1.73,0.87-2.21,1.52
		c-0.47,0.65-0.71,1.38-0.71,2.21c0,0.87,0.26,1.64,0.77,2.3c0.51,0.66,1.32,1.24,2.43,1.72c1.11,0.49,2.54,0.92,4.29,1.29
		l4.57,0.97c3.07,0.65,5.71,1.51,7.92,2.58c2.21,1.07,4.02,2.33,5.43,3.76c1.41,1.44,2.45,3.05,3.11,4.85
		c0.66,1.8,0.99,3.76,0.99,5.88c0,3.67-0.91,6.78-2.71,9.34s-4.4,4.5-7.77,5.82C570.23,334.29,566.19,334.95,561.47,334.95z"/>
	<path class="st1" d="M588.05,334.27v-55.78h15.12v21.79h20.07v-21.79h15.12v55.78h-15.12v-21.79h-20.07v21.79H588.05z"/>
	<path class="st1" d="M670.64,335.02c-5.07,0-9.65-1.1-13.76-3.29c-4.11-2.2-7.36-5.42-9.75-9.68c-2.4-4.26-3.59-9.47-3.59-15.63
		c0-6.21,1.2-11.46,3.59-15.72c2.4-4.27,5.65-7.49,9.75-9.68c4.1-2.18,8.69-3.28,13.76-3.28s9.65,1.09,13.74,3.28
		c4.09,2.18,7.34,5.41,9.75,9.68c2.41,4.27,3.61,9.51,3.61,15.72c0,6.19-1.2,11.41-3.61,15.67c-2.41,4.26-5.66,7.47-9.75,9.66
		C680.29,333.93,675.71,335.02,670.64,335.02z M670.64,321.84c2.52,0,4.64-0.59,6.35-1.78s3-2.93,3.88-5.22s1.31-5.1,1.31-8.42
		c0-3.34-0.44-6.17-1.31-8.48c-0.87-2.31-2.17-4.06-3.88-5.24s-3.83-1.78-6.35-1.78c-2.5,0-4.6,0.59-6.31,1.78
		c-1.71,1.19-3.01,2.93-3.89,5.24c-0.89,2.31-1.33,5.14-1.33,8.48c0,3.32,0.44,6.13,1.33,8.42c0.88,2.3,2.18,4.04,3.89,5.22
		C666.04,321.25,668.14,321.84,670.64,321.84z"/>
	<path class="st1" d="M702.91,334.27v-55.78h24.04c4.14,0,7.77,0.82,10.88,2.45c3.11,1.63,5.53,3.94,7.26,6.91
		c1.73,2.97,2.6,6.44,2.6,10.41c0,3.99-0.89,7.44-2.66,10.35c-1.77,2.91-4.25,5.15-7.45,6.74c-3.19,1.58-6.91,2.38-11.16,2.38
		h-14.38v-11.76h11.31c1.8,0,3.33-0.32,4.61-0.96c1.27-0.64,2.25-1.53,2.92-2.68s1.01-2.51,1.01-4.08c0-1.62-0.34-3-1.01-4.14
		s-1.65-2-2.92-2.6c-1.27-0.6-2.81-0.9-4.61-0.9h-5.32v43.65H702.91z"/>
</g>
</svg>
