<?xml version="1.0" encoding="UTF-8"?>
<svg id="a" data-name="Layer 1" xmlns="http://www.w3.org/2000/svg" viewBox="0 0 187.64 200">
  <path d="m69.22,48.99s0,0,0,0c0,0,0,0,0,0-.01.01-.01.01,0,0Z" style="fill: #fff;"/>
  <path d="m69.4,45.49c.26-.26.37-.55.49-.88.16.7.09,1.35-.03,2.2-.12.82-.18,1.53-.63,2.17.11-.37.1-.83-.06-1.18-.27-.58-.97-1.12-.45-1.81.17-.23.48-.3.69-.51Z" style="fill: #fff;"/>
  <path d="m65.38,47.55c.49.37.56.84,1.09,1.11.36.18.59-.05,1.45.48-.58.04-2.34-.14-2.95-.21-1.06-.11-2.14-.19-3.21-.33-.4-.05-.71-.42-.71-.86,0-1.24.06-3.72.14-4.32.23,2.04.55,2.74.91,3.21.48.63,1.11.91,1.8.68.57-.19.97-.14,1.48.25Z" style="fill: #fff;"/>
  <path d="m59.78,48.28c-1.58-.12-5.17-.39-5.19-.45-.03-.07.29-4.04.29-4.04.56,1.41.27,2.29,2.88,2.18,2.54-.11,1.88-1.12,2.95-2.3l-.16,3.86c-.02.43-.36.77-.76.74Z" style="fill: #fff;"/>
  <path d="m55.81,43.97c-.21,0-.38-.17-.39-.39,0-.22.17-.4.38-.4.21,0,.38.17.39.39,0,.22-.17.4-.38.4Z" style="fill: #fff;"/>
  <path d="m134.06,181.46c2.61-.76,5.17-1.75,7.61-2.95,2.93-1.44,5.8-3.3,7.97-5.77.55-.63,1.07-1.32,1.52-2.05.22.93-1.49,3.95-.87,5.18.58,1.16,1.4,1.79,3.75,1.02-.92,1-1.94,1.9-3.01,2.71-2,1.53-4.18,2.8-6.46,3.89-1.43-.78-3.49-.92-4.98-.84-2.32.13-6.52.84-8.11-.49.87-.22,1.73-.45,2.59-.7Z" style="fill: #fff;"/>
  <path d="m123.74,183.64c.36-.05,1.17-.34,1.5-.19.27.12.47.57.7.79,2.18,2.09,4.89,1.65,6.22,3.53-.09-.19-2.88.55-3.14.6-3.39.64-6.83,1.05-10.28,1.27-2.12-3-6.01-2.55-5.5-5.25,3.51-.05,7.01-.28,10.49-.75Z" style="fill: #fff;"/>
  <path d="m118.23,132.86c.97,0,1.75.85,1.75,1.89,0,.09,0,.17-.02.25-.16-.73-.77-1.27-1.5-1.27-.85,0-1.55.75-1.55,1.67,0,.3.07.58.2.82-.4-.35-.65-.88-.65-1.47,0-1.04.79-1.89,1.75-1.89Z" style="fill: #fff;"/>
  <path d="m137.74,170.64c1.82.54,3.14,1.38,4.09,2.21.86.76.72,2.13-.28,2.68-1.54.83-3.73,1.89-5.54,2.35,1.65-1.69.02-3.88-.93-4.63-4.15-3.23-15.31-4.19-13.44-10.67-.21,5.44,9.84,6.17,16.11,8.05Z" style="fill: #fff;"/>
  <path d="m143.3,184.11s-2.21.9-3.68,1.4c-.47-.63-1.14-1.17-3.2-1.7,4.54-.83,6.89.3,6.89.3Z" style="fill: #fff;"/>
  <path d="m110.5,189.64l-3.88-.09s-3.06-3.17-3.02-5.5c2.54,2.77,6.9,5.59,6.9,5.59Z" style="fill: #fff;"/>
  <path d="m.16,156.92c-.37.82-.1,1.8.63,2.32,5.34,3.8,32.07,22.82,34,24.11,2.18,1.45,4.75,2.55,7.64,3.28,1.25.31,5.73,1.34,10.69,1.34,2.7,0,5.12-.3,7.21-.89.63-.18,1.56-.46,2.7-.82v6.38c-.71.39-1.15.95-1.15,1.59v3.61c0,1.24,1.6,2.17,3.73,2.17s3.73-.93,3.73-2.17v-3.61c0-.64-.43-1.2-1.15-1.59v-8.05c.55-.18,1.12-.37,1.69-.56,2.04,1.64,4.47,3.18,7.28,4.58,9.45,4.71,22.01,7.3,35.36,7.3,13.35,0,25.91-2.59,35.36-7.3,9.57-4.77,14.85-11.15,14.85-17.97,0-.21,0-.42-.02-.63,0-.12-.02-.25-.03-.37,0-.08-.01-.17-.02-.26-.02-.16-.04-.33-.06-.49,0-.04,0-.09-.02-.13-.03-.2-.06-.39-.1-.59,0,0,0-.02,0-.03-.83-4.32-3.81-8.4-8.68-11.92-.01-.01-.03-.02-.04-.03-.21-.15-.42-.3-.64-.45-.03-.02-.06-.04-.09-.06-.2-.14-.41-.27-.61-.41-.05-.03-.1-.06-.14-.09-.19-.13-.39-.25-.59-.37-.07-.04-.13-.08-.2-.12-.18-.11-.37-.22-.56-.34-.09-.05-.17-.1-.26-.15-.17-.1-.35-.2-.53-.3-.1-.06-.2-.12-.31-.17-.17-.09-.34-.19-.51-.28-.12-.06-.24-.13-.35-.19-.16-.09-.32-.17-.49-.25-.07-.04-.14-.07-.21-.11-.03-.02-.07-.03-.1-.05-.1-.05-.2-.1-.3-.15-.22-.11-.45-.21-.67-.32-.3-.15-.6-.29-.91-.43-.3-.14-.61-.27-.91-.4-.31-.14-.62-.27-.93-.4-.32-.13-.65-.26-.98-.39-.31-.12-.61-.24-.92-.36-.35-.13-.71-.26-1.07-.39-.3-.11-.59-.21-.89-.31-.38-.13-.77-.25-1.16-.38-.28-.09-.57-.18-.86-.27-.41-.13-.83-.25-1.25-.37-.27-.08-.55-.16-.82-.23-.44-.12-.88-.23-1.33-.35-.27-.07-.53-.14-.8-.2-.46-.11-.93-.22-1.4-.32-.26-.06-.52-.12-.79-.17-.48-.1-.96-.2-1.44-.29-.27-.05-.53-.1-.8-.15-.48-.09-.97-.17-1.46-.26-.27-.05-.55-.09-.83-.14-.48-.08-.97-.15-1.46-.22-.29-.04-.58-.08-.87-.12-.48-.06-.96-.12-1.44-.18-.31-.04-.62-.07-.94-.1-.19-.02-.37-.04-.56-.06v-8.18s18.47,4.38,18.47,4.38c.48,1.48,1.87,2.55,3.51,2.55,2.04,0,3.7-1.66,3.7-3.7s-1.66-3.7-3.7-3.7c-1.07,0-2.03.46-2.71,1.19l-19.28-4.57v-7s15.21-5.07,15.21-5.07c.35,0,.71.02,1.06.02,13.2,0,23.61-4.92,26.49-6.42l.31-.16c5.49-2.87,8.51-4.45,12.64-18.11,4.11-13.6,3.78-23.22,3.63-27.33v-.16c-.02-.48-.1-.93-.24-1.35.66.07,1.16.12,1.47.15.1,0,.2.01.3.01h0c1.2,0,2.24-.6,3.01-1.74,1.37-2.03,1.6-5.38,1.09-6.65-.67-1.67-3.27-3.06-7.51-4.04-.58-.13-1.38-.29-2.35-.48,2.02-8.87,6.18-26.55,6.22-26.75.59-2.58-.24-4.14-2.87-5.41-2.06-.99-3.87-1.79-5.33-2.44l-.74-.33c-1.47-.65-3.47-1.54-5.87-1.74-.11,0-.31-.02-.59-.04.52-1.3,1.04-2.6,1.54-3.88.71-1.8,1.39-3.51,1.9-4.74,1.2-2.87.99-5.45-.55-6.9-1.72-1.62-3.26-2.71-8.73-3.13C161.19.05,159.28,0,156.86,0c-5.63,0-12.02.27-13.11.37h-.03c-1.6.14-3.78.32-5.23,4.08-1.39,3.63-2.6,7.25-2.02,9.16.06.18.11.37.16.56.28.98.59,2.05,1.41,3.14-3.75-.17-7.91-.34-8.94-.34-3.29,0-7.45.66-10.43,5.83-2.48,4.3-6.37,16.59-8.28,23.28-3.73-.64-33.07-4.34-36.79-4.51l-.42-.02c-1.17-.05-2.09-.09-2.9-.09-1.55,0-2.73.14-4.08.83-2.25-.11-9.7-.47-10.47-.53-.08,0-.15-.01-.22-.02-.16-.02-.32-.03-.46-.03-1.07,0-1.25.9-1.33,1.74-.1,1.04-.2,2.19-.28,2.99l-.09.92c-.06.55-.17,1.69,1.23,1.84.42.05,1.37.16,2.36.28,1.3.15,2.65.31,3,.35.52.05,6.5.51,8.52.67.24.25.74.57,1.79.68.17.02,9.06.94,18.73,1.91,1.63.43,7.18,2.09,10.05,5.63,2.74,3.37,4.14,9.35,2.72,13.62-.72-.16-1.26-.28-1.57-.35-2.37-.53-4.6-.75-7.44-.75-1.41,0-2.91.06-4.45.12-3.92.16-27.69,1.5-34.42,2.5-6.72,1-10.79,2.24-10.6,10.96.09,4.37.01,6.54-.05,8.13-.05,1.38-.09,2.29.04,3.75.31,3.41,3.4,5.04,7.32,7.1l4.22,2.07s.5.21,1.31.55c-.58,8.25-2.35,33.78-2.35,35.9,0,2.35-.45,3.07-2.4,3.83-2.37.92-22.4,7.79-25.52,8.66-1.11.31-5.08,1.32-9.4,1.32-1.63,0-3.11-.15-4.41-.43-3.34-.74-6.68-1.83-8.37-2.41-.2-.07-.41-.1-.62-.1-.75,0-1.43.44-1.74,1.13l-1.17,2.63Zm19.32,14.3c-2.98-2.62-5.97-5.59-5.31-6.38,1.2-1.46,6.2,2.04,6.57,2.3l-17.09-12.13s-.46-.29-.39-.75c.03,0,.06.01.08.02,1.72.59,5.1,1.69,8.49,2.45,1.37.31,2.93.46,4.64.46,4.45,0,8.54-1.04,9.69-1.36,2.93-.81,20.7-6.89,24.94-8.44,1.05.14,2.31.6,2.51,1.96,0,.06.02.13.03.21,2.07.92,4.12,1.86,6.17,2.81,2.69,1.26,5.3,2.72,7.92,4.13,2.65,1.42,5.29,2.86,7.92,4.32,4.66,2.59,9.31,5.23,13.87,8-2.05-1-4.09-2.03-6.12-3.07-2.7-1.56-5.42-3.1-8.14-4.62-5.24-2.92-10.52-5.76-15.84-8.51-1.71-.89-3.44-1.75-5.17-2.61-.2-.11-.4-.21-.59-.32,0,0,0,.02,0,.03-.45-.22-.89-.45-1.34-.66.45.27.9.54,1.35.81.03.36.05.83.08,1.41,1.3.61,2.6,1.22,3.89,1.84,2.65,1.27,5.21,2.72,7.79,4.11,2.7,1.46,5.39,2.94,8.07,4.45,4.61,2.59,9.21,5.22,13.72,7.99-2.05-1.01-4.09-2.05-6.12-3.1-2.68-1.57-5.38-3.1-8.08-4.62-5.19-2.91-10.42-5.76-15.69-8.51-2.37-1.24-4.75-2.45-7.15-3.63,1.19.73,2.39,1.45,3.59,2.16.01.31.02.63.03.98.64.33,1.29.67,1.93,1,5.25,2.77,10.46,5.62,15.63,8.55,4.58,2.6,9.13,5.23,13.61,8-2.07-1.03-4.12-2.09-6.16-3.16-2.64-1.56-5.3-3.09-7.97-4.6-5.16-2.93-10.37-5.78-15.63-8.55-.34-.18-.69-.36-1.03-.54-.12-.07-.24-.14-.36-.21,0,0,0,.02,0,.03-1.9-.99-3.81-1.98-5.73-2.93,1.9,1.18,3.82,2.32,5.75,3.46,0,.26.02.53.02.81,5.13,2.73,10.23,5.55,15.28,8.44,4.58,2.62,9.14,5.28,13.61,8.07-2.07-1.04-4.11-2.1-6.16-3.18-2.65-1.57-5.31-3.12-7.98-4.65-5.12-2.93-10.28-5.79-15.49-8.56-2.35-1.25-4.71-2.48-7.09-3.67,2.6,1.62,5.22,3.19,7.86,4.74,0,.23.01.46.02.69,4.39,2.39,8.76,4.83,13.09,7.33,4.56,2.63,9.09,5.3,13.55,8.1-2.06-1.04-4.11-2.12-6.15-3.21-2.63-1.58-5.27-3.13-7.92-4.66-5.1-2.94-10.24-5.81-15.42-8.6-2.34-1.26-4.69-2.49-7.06-3.69,3.28,2.06,6.61,4.06,9.95,6.01,0,.2,0,.4.01.6,3.66,2.03,7.3,4.1,10.91,6.2,4.54,2.64,9.05,5.33,13.49,8.14-2.06-1.05-4.11-2.14-6.14-3.24-2.61-1.58-5.23-3.13-7.87-4.67-5.08-2.96-10.21-5.85-15.38-8.65-2.32-1.26-4.66-2.5-7.01-3.7,3.96,2.51,7.98,4.92,12.03,7.29,0,.18,0,.37.01.55,2.93,1.65,5.84,3.33,8.73,5.03,4.52,2.65,9.01,5.35,13.42,8.18-2.06-1.06-4.1-2.16-6.14-3.27-2.59-1.58-5.19-3.14-7.81-4.68-5.06-2.97-10.16-5.88-15.31-8.69-2.31-1.26-4.64-2.51-6.98-3.72,4.35,2.79,8.79,5.45,13.24,8.07.29.17.58.33.86.5,0,.18,0,.35,0,.53,2.19,1.26,4.37,2.53,6.54,3.82,4.5,2.67,8.97,5.38,13.36,8.21-2.06-1.07-4.1-2.18-6.13-3.3-2.57-1.58-5.16-3.14-7.75-4.68-5.04-2.99-10.11-5.91-15.24-8.73-2.3-1.27-4.62-2.52-6.95-3.73,4.33,2.8,8.75,5.47,13.18,8.11,1,.6,2.01,1.19,3.02,1.78,0,.18,0,.36,0,.54,1.43.84,2.86,1.68,4.28,2.53,4.49,2.69,8.96,5.42,13.34,8.28-2.06-1.08-4.09-2.19-6.12-3.32-2.57-1.6-5.15-3.17-7.75-4.72-5.01-3-10.06-5.93-15.17-8.77-2.28-1.27-4.57-2.52-6.88-3.73,4.3,2.8,8.68,5.48,13.07,8.12,1.74,1.05,3.49,2.08,5.24,3.1,0,.2,0,.4.01.6.69.41,1.38.82,2.06,1.24,4.45,2.69,8.89,5.43,13.24,8.29-2.06-1.09-4.09-2.22-6.13-3.36-2.53-1.59-5.08-3.15-7.63-4.7-4.99-3.01-10.02-5.96-15.1-8.82-2.28-1.28-4.58-2.55-6.89-3.77,4.26,2.81,8.61,5.48,12.97,8.13,2.49,1.51,4.99,3,7.51,4.47,0,.23,0,.45.01.68,4.35,2.66,8.68,5.35,12.93,8.17-2.05-1.1-4.09-2.24-6.12-3.38-2.51-1.59-5.04-3.16-7.58-4.7-4.97-3.03-9.98-5.99-15.03-8.86-2.27-1.29-4.56-2.56-6.86-3.79,4.24,2.82,8.56,5.51,12.91,8.16,3.24,1.98,6.5,3.92,9.78,5.84,0,.28,0,.55.01.81,3.53,2.19,7.04,4.42,10.49,6.74-2.05-1.11-4.09-2.25-6.11-3.41-2.49-1.59-5-3.16-7.52-4.71-4.94-3.04-9.93-6.02-14.97-8.9-2.26-1.3-4.54-2.57-6.83-3.81,4.22,2.83,8.52,5.53,12.85,8.2,4.01,2.47,8.05,4.89,12.12,7.26,0,.34.01.67.02.99,2.68,1.7,5.34,3.43,7.97,5.21-2.05-1.12-4.08-2.27-6.11-3.44-2.46-1.59-4.94-3.15-7.42-4.69-4.94-3.07-9.93-6.07-14.96-8.98-2.25-1.3-4.5-2.58-6.78-3.82,4.21,2.85,8.51,5.57,12.83,8.26,4.78,2.98,9.62,5.88,14.5,8.71,0,.32.01.62.02.89,1.89,1.24,3.76,2.49,5.62,3.78-1.56-.87-3.11-1.76-4.66-2.67-2.95-1.94-5.93-3.84-8.93-5.72-4.92-3.08-9.88-6.1-14.89-9.02-2.23-1.3-4.48-2.59-6.75-3.84,4.19,2.86,8.47,5.6,12.77,8.3,4.94,3.1,9.93,6.13,14.97,9.07.63.37,1.27.73,1.9,1.1,0,.23.02.43.03.58.01.19,0,.38-.03.55,1.16.8,2.32,1.6,3.47,2.41-.74-.43-1.48-.86-2.22-1.3-3.71-2.51-7.47-4.95-11.26-7.35-4.91-3.11-9.86-6.15-14.87-9.09-2.22-1.31-4.46-2.6-6.72-3.86,4.16,2.86,8.4,5.6,12.66,8.3,4.93,3.13,9.91,6.17,14.94,9.14,1.28.76,2.57,1.5,3.86,2.24-.16.41-.41.76-.74,1.08.52.37,1.05.74,1.56,1.12-.4-.23-.81-.48-1.21-.72-3.8-2.61-7.66-5.12-11.54-7.61-4.88-3.12-9.82-6.17-14.8-9.14-2.21-1.32-4.44-2.61-6.69-3.88,4.14,2.88,8.36,5.62,12.6,8.34,4.91,3.14,9.87,6.2,14.87,9.18,1.65.98,3.3,1.94,4.96,2.9-.38.31-.84.58-1.32.79-4.05-2.83-8.18-5.54-12.33-8.22-4.84-3.12-9.73-6.17-14.67-9.14-2.2-1.32-4.42-2.63-6.66-3.9,4.13,2.9,8.35,5.67,12.59,8.41,4.86,3.14,9.78,6.21,14.75,9.19,2.08,1.25,4.16,2.47,6.27,3.67-1.41.6-3.04.79-3.84.66,2.07.4,5.7.91,10.15.29,6.05-.83,25.81-8.77,27.21-9.28.26-.1.88-.28,1.71-.53-.13.18-.24.36-.34.55l-7.14,2.85s3.69-.42,4.58.69c.59.74.42,1.96.24,2.69-1.7.57-3.56,1.19-5.47,1.83-1.46.15-2.66-.86-3.52-1.57-.98-.81-.45-1.85.89-2.48,0,0-3.62,1.25-6.39,2.37,1.71-.22,3.73,1.14,4.64,1.95.46.41.12.88-.33,1.24l-2.71-2.3,1.58,2.72c-4.11,1.36-7.98,2.63-10.59,3.45-1.09.19-2.26.25-2.94-.35-1.07-.93-.44-2.12.17-2.46,1.36-.75,2.95-1.69,2.95-1.69-3.44,1.02-6.98,1.5-11.2.91,1.02.69,3.32.92,3.92,1.66.52.63.67,2.74-.88,3.49-.45.02-.91.03-1.38.03-2.27,0-4.43-.22-6.21-.48-.73-.8-1.81-2.32-1.81-4.38-.71.51-1.3,1.64-1.44,3.79-.42-.09-.74-.17-.97-.23-.16-.04-.31-.08-.47-.13.09-.38.2-.9.34-1.61.6-3.05,2.89-3.26,2.89-3.26l-5.43-1.25-1.92,4.63c-.42-.2-.83-.4-1.22-.62.4-.96,1.27-3.06,1.51-3.74.3-.85.62-.72-.97-1.83-1.59-1.11-12.12-7.87-12.12-7.87,0,0,6.4,5.01,6.63,7.09.14,1.32-2.19.81-4.28.02-2.46-1.74-5.29-3.75-8.17-5.8Zm48.53,27.59c-.39-.85-.39-2.1,0-2.95.39.85.39,2.1,0,2.95Zm-5.59-4.46s.03.07.05.1c.12.16.41.46.44.48.23.18.5.31.78.41.62.21,1.28.28,1.93.27,1.05-.01,2.83-.2,3.2-1.39-.18,1.3-2.03,1.63-3.09,1.66-1.16.03-2.74-.24-3.26-1.43-.04-.05-.06-.09-.05-.1Zm1.69-5c.12-.32.26-.64.41-.94l.2,4.98.73-6.56c.55-.79,1.15-1.43,1.68-1.88v8.79c0,.17-.53.57-1.51.57s-1.51-.4-1.51-.57v-4.38Zm82.36-50.32c.45.56.54,1.24.2,1.51-.34.28-.99.05-1.44-.51-.45-.56-.54-1.24-.2-1.51.34-.28.99-.05,1.44.51Zm-25.16-2.72c.04-.09.08-.18.11-.27l21.78,5.04-21.6-5.8c.02-.17.04-.35.04-.53,0,0,0,0,0-.01l21.92,5.2c.08.02.17.11.22.23.08.18.1.41.05.64-.1.43-.42.69-.61.69-.01,0-.02,0-.03,0l-21.88-5.19Zm17.38-15.59c-5.38,0-10.65-.83-15.66-2.46-2.63-.86-4.89-1.71-6.66-2.64-.28-.69-.49-1.41-.59-2.15-.13-1.03-.01-2.11.5-3.03.49-.88,1.32-1.53,2.27-1.83.68-.22,1.37-.24,2.08-.2,1.11.06,2.22.13,3.33.19,2.29.11,4.59.19,6.88.19,2.3,0,4.61-.06,6.9-.28,2.28-.22,4.55-.61,6.8-1.07,4.36-.88,8.72-2.1,12.76-3.99,3.69-1.72,7.28-4.08,9.63-7.47.17-.25.33-.51.5-.76-1.07,1.34-2.24,2.54-3.59,3.6-1.63,1.27-3.41,2.33-5.27,3.24-3.86,1.88-8,3.15-12.19,4.08-2.18.49-4.38.91-6.59,1.23-2.25.33-4.52.48-6.78.54-2.22.06-4.45.03-6.67-.04-1.09-.03-2.18-.08-3.26-.13-1.07-.05-2.16-.19-3.23-.15-1.98.07-3.79,1.17-4.53,3.05-.43,1.1-.45,2.31-.23,3.47-.55-1.28-.85-2.64-.65-4.06-.4,1.39-.29,2.8.06,4.16-.66-1.4-1.05-2.89-.84-4.45-.39,1.35-.3,2.72.03,4.04-.01-.01-.03-.03-.04-.04-.61-1.35-.97-2.79-.76-4.29-.31,1.08-.32,2.16-.14,3.23-.7-1.08-.88-2.29-.44-3.72.65-2.11,1.62-3.32,4.67-3.32.46,0,.98.03,1.53.09,2.5.26,5.19.38,7.99.38,4.16,0,8.54-.29,13-.85,10.03-1.27,18.66-4.88,23.68-9.9,5.33-5.33,6.34-18.36,4.4-24.21-.12-.37-.28-.72-.46-1.07.92,1.38,1.51,2.97,1.88,4.61.28,1.26.41,2.53.5,3.81-.02-2.16-.15-4.35-.84-6.42-.54-1.62-1.38-3.14-2.55-4.36.18.13.36.27.53.42,1.99,1.72,3.06,4.22,3.62,6.73.28,1.27.42,2.56.51,3.86-.02-2.18-.17-4.36-.84-6.45-.58-1.81-1.52-3.46-2.87-4.78,1.33.92,2.39,2.17,3.15,3.6,1.87,3.54,2.14,7.79,1.79,11.7-.17,1.93-.52,3.83-.97,5.71,1.15-3.25,1.86-6.66,1.83-10.12-.02-2.72-.46-5.65-1.76-8.09,1.57,2.27,2.4,5.03,2.57,8.18.03.54.64-3.57,2.59-2.42,2.77,1.64,3.08,7.87,3.08,7.87,0,0,.76-8.57.86-11.65.05-1.48-.02-2.92-.66-4.28.27.03.52.06.76.09.22.45.36.96.38,1.52v.16c.15,4.06.48,13.56-3.58,26.98-4,13.23-6.71,14.65-12.11,17.47l-.31.16c-2.82,1.48-13.04,6.3-25.99,6.3Zm7.88-69.66c-.37-.03-.73-.05-1.06-.07.58-2.14,1.19-4.26,1.86-6.38,1.21-3.83,2.59-7.61,4.17-11.3.73-1.72,1.52-3.41,2.34-5.09.56-1.15,1.21-2.26,1.82-3.39-.04.09-.08.19-.12.28-.66,1.52-1.33,3.04-1.95,4.58-.71,1.78-1.39,3.56-2.06,5.36-1.42,3.79-2.61,7.68-3.75,11.56-.43,1.47-.85,2.96-1.25,4.44Zm-15.74-.18c-.37-.04-.73-.08-1.08-.11.64-2.58,1.34-5.15,2.15-7.68,1.18-3.66,2.45-7.29,3.99-10.81.75-1.7,1.54-3.37,2.36-5.04.55-1.13,1.2-2.21,1.81-3.3-.04.08-.07.17-.11.25-1.39,3.14-2.74,6.29-3.91,9.52-1.31,3.63-2.54,7.31-3.58,11.03-.57,2.05-1.12,4.09-1.64,6.15Zm-20.94-3.03c-.51-.07-1.04-.14-1.61-.22-.98-.15-2.04-.28-3.16-.45-1.12-.17-2.3-.34-3.53-.53-2.45-.36-5.06-.74-7.67-1.13-2.61-.38-5.23-.76-7.68-1.12-1.22-.18-2.41-.36-3.53-.53-1.12-.17-2.18-.33-3.16-.49-1.96-.32-3.59-.58-4.73-.76-1.14-.2-1.79-.32-1.79-.32,0,0,2.63.25,6.58.63.99.09,2.05.2,3.18.32,1.13.12,2.32.24,3.55.38,1.23.14,2.5.29,3.79.43,1.29.16,2.6.32,3.91.49,2.62.32,5.24.7,7.7,1.05,1.23.17,2.41.36,3.53.55.56.09,1.11.19,1.63.29.53.1,1.03.2,1.52.3.58.13,1.13.25,1.65.37-.07.25-.14.49-.2.72Zm-54.25-5.04c.71.06,6.7.35,9.6.49l1.03.08c3.31.25,3.85.65,3.94.77.28.58.17,3.3-.27,4.53-.21.58-.69.74-.97.78-1.28-.1-8.37-.65-8.92-.7-.34-.03-1.68-.19-2.98-.35-1-.12-1.95-.23-2.37-.28-.34-.04-.35-.04-.29-.67l.09-.93c.07-.81.18-1.96.28-2.99.06-.59.14-.74.16-.77,0,0,.04,0,.1,0,.1,0,.22.01.36.03.07,0,.15.01.23.02Zm44.23,15.23c-1.53-1.88-3.69-3.25-5.71-4.21,2.25.62,5.35,1.96,7.69,4.88,2.84,3.53,3.74,9.82,2.3,14.16-.48-.11-.93-.21-1.34-.3,1.5-4.63.02-10.88-2.95-14.53Zm5.07,17.15c-1.89.1-3.78.19-5.66.29-5.97.31-11.94.64-17.91,1.02-2.92.19-5.84.38-8.75.67-1.34.13-2.67.29-4,.51-1.01.17-2.16.33-3.04.89.92-.66,2.17-.86,3.26-1.07,1.42-.28,2.85-.47,4.29-.64,5.76-.68,11.56-.99,17.35-1.27,4.82-.23,9.64-.38,14.46-.41Zm-36.86,7.6c-.4.55-.86,1.04-1.21,1.62-.42.68-.72,1.43-.89,2.21-.33,1.53-.32,3.09-.51,4.63-.67-2.82-.82-7.38,2.61-8.46Zm-9.94,65.14c3.32,1.22,7.53,3.4,12.66,6.06,1.55.8,3.19,1.65,4.92,2.54,5.69,2.9,10.99,5.67,15.08,7.81-4.8-2.07-11.21-4.74-17.79-8.21-7.63-4.02-12.03-6.65-14.87-8.2Zm57.74-13.19c0-1.42,1.06-2.58,2.36-2.58s2.36,1.16,2.36,2.58-1.06,2.58-2.36,2.58-2.36-1.16-2.36-2.58Zm-17.96,33.86c-.3.2-1.4.59-2.93,1.14-.68.24-1.47.53-2.36.85-3.2,1.17-3.61,3.24-3.61,4.91,0,.85.23,1.51.53,2.02-.01,0-.02,0-.03,0-.04-.05-.08-.09-.12-.14-.07-.08-.13-.18-.19-.28-.07-.1-.12-.22-.18-.33-.05-.12-.11-.25-.16-.38-.05-.13-.08-.27-.12-.41-.03-.14-.06-.28-.08-.43-.03-.14-.03-.28-.04-.42,0-.14,0-.27,0-.4,0-.13,0-.25.02-.36.02-.22.04-.41.07-.54.02-.13.04-.21.04-.21,0,0-.03.07-.08.19-.03.06-.05.14-.08.23-.03.09-.06.19-.09.3-.03.11-.06.23-.08.36-.03.13-.04.27-.06.42,0,.15-.02.3-.01.45,0,.15.01.31.03.47,0,0,0,.02,0,.03-.03-.1-.06-.2-.08-.3-.03-.14-.06-.28-.08-.43-.02-.14-.03-.28-.04-.42,0-.14,0-.27,0-.4,0-.13,0-.25.02-.36.02-.22.04-.41.07-.54.02-.13.04-.21.04-.21,0,0-.03.07-.08.19-.03.06-.05.14-.08.23-.03.09-.06.19-.09.3-.03.11-.06.23-.08.36-.03.13-.04.27-.06.42,0,.15-.02.3-.01.45,0,.15.01.3.03.46-.02-.07-.04-.15-.06-.23-.03-.14-.07-.28-.08-.42-.03-.14-.04-.28-.05-.41,0-.14-.02-.27-.02-.39,0-.13,0-.24,0-.35.01-.22.03-.4.05-.53.02-.13.03-.2.03-.2,0,0-.03.07-.07.19-.04.12-.11.3-.15.52-.03.11-.05.23-.07.36-.03.13-.03.27-.04.41-.01.29-.01.6.03.9,0,.04.01.08.02.12-.17-.38-.27-.82-.27-1.32,0-1.58.37-3.17,3.08-4.16.89-.32,1.67-.6,2.36-.85,1.88-.67,2.73-.98,3.1-1.22.97-.64,1.47-1.81,1.83-4.32.09-.63.68-4.5,1.43-9.41,1.52-9.93,3.75-24.49,4.26-28.09l-.7,7.13,1.36-6.77-.82,6.93,1.49-6.74-.95,6.91,1.69-6.98c-.59,3.22-3.61,20.2-5.95,37.94-.33,2.53-.83,3.34-1.48,3.76Zm79.75-102.4c-1.76-.18-3.81-.4-6-.65-1.1-.13-2.23-.26-3.38-.39-1.15-.14-2.32-.28-3.49-.42-1.17-.15-2.34-.29-3.49-.44-1.15-.15-2.28-.3-3.37-.44-2.19-.29-4.23-.57-5.98-.82-1.75-.24-3.2-.47-4.22-.62-1.02-.16-1.6-.25-1.6-.25,0,0,.59.05,1.61.15,1.03.1,2.49.23,4.25.42,1.76.18,3.81.4,6,.65,1.1.13,2.23.26,3.38.39,1.15.14,2.32.28,3.49.42,1.17.15,2.34.29,3.49.44,1.15.15,2.28.3,3.37.44,2.19.29,4.23.57,5.98.82,1.75.25,3.2.47,4.22.62,1.02.16,1.6.25,1.6.25,0,0-.59-.05-1.61-.15-1.03-.1-2.49-.23-4.25-.42Zm-3.47-9.01c-4.01-.4-22.12-2.87-23.99-2.15-1.74.66-2.88,4.11-4.36,5.88.7-1.76,1.9-7.49-.37-8.2,1.06.13,20.26,2.55,28.72,4.47Zm-33.93-4.28h.06c4.74.64,5.35,1.28,5.43,1.46.36.86.02,4.56-.71,6.26-.42,1-1.36,1.1-1.74,1.1-.04,0-.07,0-.08,0h0c-.11-.02-12.36-1.6-13.23-1.73-.5-.07-2.44-.4-4.32-.72-1.44-.24-2.82-.47-3.42-.57-.29-.05-.5-.13-.58-.24-.12-.16-.05-.54,0-.91l.18-1.14c.17-1.09.42-2.69.65-4.13.19-1.19.39-1.19.6-1.19.17,0,.39.03.65.07.11.02.22.03.33.05,1.33.18,15.51,1.63,16.17,1.69Zm-24.82,24.94c-2.3.12-4.6.24-6.89.38-5.53.34-11.06.67-16.58,1.11-2.67.21-5.35.44-8.01.75-1.26.15-2.51.32-3.76.54-1.14.2-2.29.44-3.33.95,1.11-.61,2.35-.89,3.57-1.15,1.43-.3,2.88-.51,4.33-.7,5.53-.74,11.11-1.1,16.67-1.42,4.66-.26,9.33-.43,14.01-.46Zm3.5.89c-2.3.12-4.6.25-6.89.39-5.5.35-11,.69-16.49,1.15-2.69.22-5.38.47-8.05.81-1.23.16-2.46.33-3.67.56-1.1.21-2.2.45-3.22.93,1.12-.59,2.36-.89,3.59-1.16,1.41-.3,2.83-.52,4.26-.72,5.51-.77,11.08-1.16,16.63-1.49,4.61-.27,9.22-.45,13.84-.47Zm-18.23,24.31c-1.02-2-1.65-4.47-2.98-6.59-.92-1.47-4.07-2.75-3.2-3.8,1.32-1.59,5.3,1.22,8.32-.65-1.87,2.49-2.85,5.52-2.14,11.04Zm23.18-42.99c.29.05.59.1.9.15-.43,2.12-.82,4.25-1.21,6.38-.53,2.95-.96,5.93-1.38,8.9,0-.09,0-.18.01-.27.17-3.35.46-6.68.89-10.01.22-1.72.49-3.44.78-5.15Zm3.75.63c.33.05.63.11.91.15-.44,2.18-.86,4.36-1.26,6.54-.54,2.97-.97,5.96-1.39,8.95,0-.09,0-.18.01-.28.17-3.36.47-6.7.91-10.03.23-1.78.51-3.57.82-5.34Zm11.35,1.56c.31.04.62.08.91.12-.48,2.24-.93,4.48-1.35,6.73-.61,3.25-1.12,6.52-1.57,9.79,0-.1,0-.2.01-.3.18-3.69.54-7.36,1.09-11.01.27-1.78.58-3.56.91-5.33Zm3.8.49s.05,0,.07,0c.14.17.37.36.75.55-.51,2.32-.98,4.66-1.42,6.99-.59,3.14-1.08,6.28-1.51,9.44.01-.26.02-.52.04-.79.17-3.65.56-7.3,1.15-10.9.29-1.77.6-3.54.94-5.31Zm13.04,2.4c.59.07,1.19.15,1.8.22-.3,1.71-.56,3.42-.81,5.14-.25,1.72-.43,3.45-.67,5.17-.19,1.36-.25,2.75-.41,4.12-.04-.23-.06-.47-.09-.7-.21-1.6-.34-3.19-.37-4.8-.02-.89-.04-1.78,0-2.66.04-.9.09-1.8.15-2.71.08-1.26.22-2.52.4-3.77Zm6.29,4.47c-.01.75-.1,1.51-.18,2.25-.18,1.7-.41,3.39-.64,5.08-.11.81-.23,1.63-.36,2.44-.1.64-.17,1.35-.39,1.97-.13-.8-.25-1.59-.29-2.4-.08-1.75.07-3.53.45-5.23.31-1.41.72-2.82,1.4-4.1Zm-2.16-3.96c-.41,2.09-.79,4.19-1.12,6.3-.49,3.14-.91,6.29-1.33,9.44l.02-.29c.26-3.58.58-7.14,1.09-10.69.23-1.62.5-3.22.8-4.83.18.02.36.04.54.07Zm-12.62-1.59c-.51,2.34-1,4.68-1.45,7.03-.6,3.15-1.1,6.32-1.53,9.5.01-.28.03-.55.04-.83.17-3.66.58-7.33,1.18-10.95.27-1.63.56-3.25.87-4.88.26.04.56.07.89.12Zm-12.16-2.31c.31.04.63.08.94.12-.49,2.32-.96,4.65-1.4,6.99-.56,3.04-1.02,6.11-1.45,9.17,0-.09,0-.18.01-.28.17-3.45.5-6.86.97-10.28.26-1.91.57-3.82.91-5.73Zm.33,24.65l-4.08.6c-4.34.63-8.68,1.19-13.03,1.78-4,.54-8,1.05-11.96,1.82,2.05-.55,4.13-.95,6.23-1.28,4.41-.69,8.84-1.2,13.26-1.76,3.19-.4,6.38-.78,9.57-1.17Zm-5.92-9.22c0-.1,0-.19.01-.29.17-3.4.49-6.77.94-10.14.24-1.83.53-3.67.85-5.5.28.04.6.08.93.12-.47,2.28-.92,4.56-1.34,6.84-.55,2.97-.98,5.97-1.4,8.96Zm26.83,9.83c-2.43-1.86-5.75-1.28-8.55-.92-6.22.8-12.43,1.69-18.65,2.55-3.21.44-6.42.89-9.63,1.31-3.17.42-6.34.86-9.52,1.18-1.5.15-3.03.33-4.42.94-1.31.58-2.32,1.6-2.94,2.89-.64,1.33-.87,2.84-.96,4.3-.09,1.51-.06,3.03-.08,4.54-.05,4.54-.14,9.09-.23,13.63,0-.15,0-.3,0-.45-.04-5.16-.06-10.33-.07-15.49,0-2.96.02-6.43,2.3-8.64,2.21-2.15,5.64-2.08,8.5-2.43,3.25-.39,6.48-.86,9.72-1.31,3.22-.44,6.44-.86,9.65-1.29,3.13-.42,6.27-.85,9.41-1.25,3.12-.4,6.26-.86,9.4-1.11,1.48-.12,3.02-.09,4.44.4,1.29.44,2.37,1.3,3.1,2.45,1.42,2.24,1.64,5.04,1.73,7.62-.03-.49-.07-.98-.11-1.46-.26-2.64-.85-5.76-3.09-7.47Zm-64.52-1.45c2.36-1.1,5.03-1.51,7.58-1.93,5.41-.88,10.9-1.35,16.37-1.72,4.52-.31,9.06-.56,13.59-.53-2.23.12-4.46.25-6.69.4-5.37.35-10.73.76-16.08,1.29-2.64.26-5.29.55-7.92.94-2.3.34-4.69.67-6.86,1.55Zm1.51,6.5c0,.41-.38.75-.85.75s-.85-.33-.85-.75c0-.41.38-.75.85-.75s.85.33.85.75Zm-5.27-7.51c1.09-.53,2.25-.85,3.42-1.12,1.4-.32,2.82-.57,4.24-.79,5.44-.84,10.94-1.28,16.43-1.64,4.56-.3,9.14-.54,13.71-.52-2.28.12-4.57.26-6.85.4-5.51.36-11.03.75-16.53,1.27-2.67.26-5.35.53-8,.92-2.15.31-4.4.61-6.42,1.47Zm-.72-1.89c-1.04.21-2.07.46-3.04.89,1.1-.55,2.29-.87,3.49-1.14,1.41-.31,2.83-.55,4.26-.76,5.49-.8,11.03-1.22,16.57-1.57,4.58-.28,9.16-.46,13.75-.49-2.3.12-4.6.25-6.89.4-5.52.35-11.03.72-16.54,1.22-2.63.24-5.26.49-7.88.84-1.24.17-2.48.35-3.71.6Zm31.09-8.04c0-.1.01-.2.02-.3.17-3.46.47-6.91.93-10.35.44-3.3.99-6.59,1.68-9.85-.12.78-.24,1.52-.33,2.11l-.18,1.13c-.09.55-.2,1.18.18,1.71.08.11.18.2.29.29-.39,1.98-.77,3.96-1.13,5.94-.56,3.09-1,6.21-1.45,9.32Zm-31.29,44.78c1.96.57,3.92,1.16,5.86,1.78,2.24.72,4.51,1.42,6.67,2.36.98.43,1.92.99,1.98,2.18.03.57-.06,1.16-.11,1.72-.06.59-.13,1.17-.21,1.76-.43,3.51-.84,7.02-1.25,10.53-.02-2.1.04-4.19.18-6.28.14-2.26.42-4.5.56-6.76.03-.47.14-1.09-.1-1.52-.24-.42-.77-.68-1.17-.9-.99-.52-2.04-.92-3.08-1.32-3.1-1.21-6.21-2.37-9.32-3.56Zm5.98,62.62c-2.91-.75-5.77-1.72-8.51-2.97.29-.1.57-.19.85-.28,4.99,2.17,10.39,3.43,15.77,4.17,6.73.93,13.59,1.01,20.34.27,6.54-.72,13.09-2.19,19.08-4.97,2.92-1.36,5.78-3.09,8.03-5.43.97-1,1.8-2.12,2.43-3.37.48-.95.76-1.93.94-2.98.31-1.84-.12-3.8-.96-5.44-1.37-2.67-3.68-4.7-6.18-6.3-2.8-1.79-5.91-3.08-9.07-4.1-3.12-1.01-6.33-1.72-9.57-2.22-1.3-.2-2.61-.37-3.92-.51v-.97c8.7.92,16.66,3.06,23,6.21,8.3,4.13,12.86,9.55,12.86,15.24,0,12.12-20.52,21.97-45.74,21.97-14.67,0-27.76-3.34-36.13-8.51.23-.08.45-.15.68-.23.65.39,1.32.76,1.98,1.11,2.59,1.36,5.31,2.46,8.09,3.37-.5-.38-.76-.79-.67-1.15.19-.72,1.79-.92,3.57-.45,1.78.47,3.07,1.44,2.88,2.15-.11.4-.65.64-1.43.69,3.55.9,7.17,1.52,10.81,1.92.92.1,1.85.19,2.77.26-.21-.23-.42-.46-.63-.7-.89-1.05-1.65-2.22-2.6-3.22-1.02-1.08-2.24-1.77-3.47-2.46-1.75-.31-3.49-.67-5.2-1.12Zm1.12,4.87c.07-.32.52-.5,1.02-.4s.85.45.79.77c-.07.32-.52.5-1.02.4s-.85-.45-.79-.77Zm28.1-27.53v-11.39c6.03.77,12.03,2.27,17.55,4.85,2.8,1.31,5.56,2.99,7.75,5.2.97.98,1.84,2.08,2.46,3.31.46.91.74,1.84.9,2.84.05.3.1.78.07,1.06-.05.42-.05.84-.12,1.27-.07.44-.18.89-.33,1.31-.39,1.12-1,2.15-1.73,3.08-1.91,2.43-4.58,4.19-7.29,5.6-5.59,2.91-11.9,4.41-18.11,5.24-6.49.86-13.13.94-19.65.28-5.68-.57-11.37-1.71-16.7-3.81.26-.09.52-.18.77-.26.37.24.75.42,1.12.53.42.13.92.21,1.45.23,1.58.49,3.25.94,5,1.33,3.04.67,6.32,1.17,9.78,1.46-.2-.22-.25-.48-.25-.75,0-.82,1.77-1.49,3.95-1.49s3.95.67,3.95,1.49c0,.41-.11.77-.64,1.04.2,0,.41,0,.61,0,.64,0,1.29,0,1.92-.03.63-.02,1.26-.03,1.91-.07,2.57-.12,5.19-.37,7.83-.76,2.63-.39,8.53-2.53,7.15-4.1-3.8-4.35-13.49-6.96-12.62-12.15.11-.68.4-1.15.77-1.54-1.59.93-4,1.69-7.64,1.69-3.07,0-5.23-.67-6.71-1.48.04-.18.08-.35.12-.54,1.41.8,3.51,1.48,6.59,1.48,9.01,0,10.1-4.63,10.14-4.83v-.11Zm-1.03,16.91c-.31-.99-.97-1.85-1.61-2.65-.65-.81-1.34-1.57-1.98-2.39-.63-.81-1.21-1.68-1.54-2.66-.27-.82-.27-1.61-.05-2.43-.06,1.07.21,2.02.78,2.93,1.13,1.79,2.83,3.14,4.03,4.88.59.85,1.06,1.82,1.06,2.87,0,.88-.41,1.63-.98,2.27.37-.93.59-1.83.28-2.82Zm-4.77,4.29c0,.32-.39.59-.87.59s-.87-.26-.87-.59.39-.59.87-.59.87.26.87.59Zm-61.85-38.56c.23-3.58.9-13.59.85-14.94.23,2.04,1.62,6.13,2.23,8.13.64,2.12,2.07,3.46,3.41,5.21,1.19,1.55,1.22,4.16,2.56,5.45,1.06,1.02,2.82,1.21,3.92,2.24,1.1,1.02,3.24,3.83,4.46,4.7-2.12-1.08-12.38-6.24-14.73-7.58-1.58-.9-2.83-1.24-2.7-3.21Zm1.11-18.38c.04-.88.34-1.57.67-1.56s.57.74.53,1.61c-.04.88-.34,1.57-.67,1.56-.33-.01-.57-.74-.53-1.61Zm51.8-27.22c-3.35,2.85-4.62,8.02-5.29,10.36.08-1.6-.19-5.33.44-8.76.89-4.79,2.63-5.43,8.68-6.17,6.06-.74,29.2-4.16,40.46-5.43,0,0-6.28,1.75-15.19,3.04-13.24,1.92-25.06,3.52-29.11,6.96Zm-21.96-6.6c-.38.71-.68,1.46-.83,2.25-.29,1.48-.29,2.98-.47,4.47-.14-.59-.24-1.2-.3-1.81-.26-2.46.1-5.53,2.69-6.65-.34.59-.76,1.14-1.09,1.74Zm-3.11-2.98c-.35.59-.78,1.12-1.12,1.73-.39.7-.69,1.46-.84,2.25-.3,1.48-.29,2.99-.48,4.48-.68-2.82-.8-7.13,2.43-8.46Zm-3.93-1.08c-.37.58-.81,1.11-1.15,1.71-.4.7-.69,1.46-.85,2.26-.3,1.49-.3,3-.48,4.5-.67-2.82-.81-7.19,2.48-8.46Zm-5.79,2.83c-.3,1.48-.3,3-.48,4.49-.67-2.83-.81-7.25,2.52-8.46-.39.59-.84,1.12-1.2,1.73-.4.69-.69,1.45-.84,2.24Zm-3.69-1.16c-.34,1.53-.32,3.1-.51,4.66-.67-2.82-.81-7.31,2.57-8.46-.37.53-.81,1-1.14,1.56-.41.7-.73,1.44-.91,2.24Zm3.57-42.48c.09.76-1.31,2.79-1.91,3.91.44-1.32,1.08-5.6-.62-6.03.78.05,2.36.73,2.53,2.12Zm35.76,8.45c-.02.08-.04.16-.05.24-.51-.04-1.05-.08-1.62-.13-2-.18-4.33-.36-6.83-.59-2.5-.24-5.16-.49-7.82-.74-2.66-.27-5.32-.55-7.81-.81-2.49-.26-4.82-.54-6.81-.75-1.99-.22-3.65-.44-4.81-.57-1.16-.15-1.82-.23-1.82-.23,0,0,.67.05,1.83.13,1.17.09,2.83.21,4.83.38,2,.18,4.33.36,6.83.59,2.5.24,5.16.49,7.82.74,2.66.27,5.32.55,7.81.81,2.49.26,4.82.54,6.81.76.58.06,1.13.13,1.65.19Zm-.09,22.68c-1.81.09-3.61.19-5.42.28-5.8.3-11.59.65-17.38,1.03-2.92.19-5.85.41-8.76.7-1.41.14-2.82.31-4.22.54-1.13.18-2.31.4-3.32.94,1.09-.66,2.38-.9,3.61-1.15,1.44-.29,2.9-.47,4.35-.65,5.63-.68,11.31-1,16.97-1.29,4.72-.24,9.44-.39,14.16-.42Zm3.5.89c-1.79.1-3.59.19-5.38.29-5.81.31-11.61.68-17.42,1.09-2.88.2-5.76.43-8.63.74-1.36.15-2.71.32-4.06.55-1.14.19-2.32.42-3.35.95,1.1-.63,2.36-.9,3.6-1.15,1.46-.3,2.94-.5,4.42-.69,5.58-.7,11.22-1.05,16.84-1.35,4.66-.25,9.33-.41,13.99-.43Zm5.6-24.33c.77-3.67,1.69-7.34,2.83-10.91,1.14-3.57,2.38-7.1,3.91-10.52.73-1.64,1.51-3.26,2.33-4.87.54-1.05,1.15-2.07,1.73-3.09-.04.09-.08.17-.11.26-1.43,3.18-2.82,6.38-3.99,9.66-1.3,3.67-2.49,7.37-3.54,11.12-.84,3-1.6,6.04-2.26,9.08-.82,3.79-1.56,7.59-2.23,11.42-.53,2.99-.95,6-1.39,9.01,0-.09,0-.17.01-.26.17-3.27.42-6.52.83-9.77.47-3.73,1.1-7.45,1.88-11.13Zm12.84-25.79c.57-1.15,1.24-2.26,1.87-3.38-.04.09-.08.17-.12.26-1.45,3.24-2.86,6.5-4.05,9.86-1.3,3.68-2.5,7.39-3.55,11.15-.49,1.76-.96,3.52-1.4,5.3,0,0-.02,0-.02,0-.58,0-.94.24-1.19.61.61-2.54,1.27-5.06,2.01-7.57.56-1.91,1.21-3.79,1.88-5.67.65-1.82,1.35-3.63,2.13-5.39.77-1.74,1.58-3.46,2.43-5.16Zm42.87,15.27c.63-2.28,1.69-3.49,3.06-3.49.23,0,.46.03.68.1.73.22,2.35,1.09,1.66,4.48-.01.06-1.08,5.59-1.92,8.26-.85,2.69-1.96,3.03-2.83,3.03-.14,0-.3-.01-.45-.03-.74-.11-1.35-.48-1.76-1.08-.54-.79-.67-1.91-.38-3.15.14-.6.28-1.21.42-1.88.34-1.57.77-3.52,1.52-6.23Zm3.11,14.03c1.02.2,1.98.42,2.87.63.88.22,1.69.43,2.4.65.36.1.69.21.99.31.3.11.58.21.83.3.25.11.46.2.65.29.18.1.34.18.47.25.23.17.35.25.35.25,0,0-.13-.07-.38-.21-.13-.05-.29-.12-.48-.19-.19-.06-.42-.14-.67-.22-.25-.07-.54-.15-.84-.23-.31-.07-.64-.17-1-.25-.72-.16-1.53-.35-2.42-.52-.89-.19-1.85-.36-2.87-.56-1.02-.19-2.1-.39-3.21-.59-2.23-.4-4.62-.79-7.01-1.18-2.39-.37-4.78-.75-7.03-1.1-2.24-.34-4.34-.66-6.13-.93-1.8-.28-3.29-.51-4.34-.67-1.05-.17-1.64-.27-1.64-.27,0,0,2.41.28,6.01.71,1.8.21,3.9.49,6.16.79,1.13.15,2.29.31,3.47.47,1.18.17,2.38.35,3.58.52,2.4.35,4.79.75,7.03,1.14,1.12.2,2.2.4,3.22.6Zm-41.7,65.46l-22.37,7.45-.07.29c-.08.33-7.66,33.32-8.6,37.94-.48,2.34-1.36,6.71-4.24,7.83-3.11,1.21-4.63,1.7-6.1,2.18-.75.24-1.56.37-2.35.37h0c-.23,0-.44-.01-.65-.03-.38-.47-.74-1.17-.74-2.15,0-1.59.39-3.36,3.26-4.41.89-.32,1.68-.61,2.36-.85,1.67-.6,2.68-.96,3.04-1.19.92-.61,1.4-1.77,1.71-4.14,2.59-19.63,6.02-38.32,6.04-38.44.27-1.27,1.21-1.46,2.5-1.72.25-.05.5-.1.76-.16,1.96-.47,6.26-1.51,6.26-1.51l.15-.04,1.63-5.79c.24.11.48.21.73.31l-1.52,5.05s1.14-2.39,1.74-2.25c.6.13.97.78.97.78l.81-2.79c.24.09.49.18.74.26l-1.18,3.24,2.92-.92-5.54,2.7s2.84-.55,4.41-.31c1.04.16,1.43.7,1.57,1.05-.58.19-1.16.39-1.74.59-3.26,1.08-6.53,2.14-9.79,3.25h0l-.13.04-.02.13-.67,3.5c-.24.15-.96.2-3.15-1.22,0,0,2.32,2.47,2.19,3.51-.21.17-.41.25-.58.12-.74-.54-1.87-1.53-2.42-2-.55-.47-.72-1.82-.53-4.21,0,0-1.24,6.65-1.49,7.62.77-1.45,1.29-2.57,1.89-1.87.72.83,1.4,1.65,1.91,2.28.41.52.82,1.86.79,2.98l-.68,3.56,3.17-14.04c6.19-2.05,12.43-3.97,18.57-6.18l2.99-.93c.47.05.95.1,1.43.14Zm-13.3,9.11v2.54c-.17-.42-.42-.8-.72-1.11.28-.46.52-.93.72-1.42Zm0,6.67v21.92c-.13.46-1.38,3.94-9.08,3.94-3.1,0-5.1-.73-6.34-1.51.04-.17.08-.35.12-.52,1.33.73,3.29,1.35,6.16,1.36v-13.64c.05-2.24.45-4.14,1.04-5.8v19.41c.89-.04,2.95-.12,4.65-.81-.75.12-2,.27-1.99-1.04,0-.47,0-.93,0-1.4v-3.84c0-1.62,0-3.24,0-4.87v-5.46c0-1.87,0-3.75,0-5.62v-1.28c.12-.17.25-.34.37-.51,0,0,.01.01.02.02l1.24,16.26.95-15.65c.47-.04.91-.18,1.3-.4v22.81c.31-.21.51-.62.8-1v-22.43s.07-.07.1-.11l.65.15Zm-69.73-62.07c-.62.49-1.94.8-2.43,1.39-.56.67-.11,1-.44,1.72-.32.7-1.04.92-1.75,1.17-.72.25-1.21.92-1.63,1.63-.44.74-.73,1.81-.8,2.65,0-.87-.01-1.76.17-2.6.29-1.39.99-2.79,2.01-3.88.71-.75,3.09-1.92,4.87-2.08Zm3.71,28.37c-.07-1.16.06-2.33.19-3.48.17,1.33.33,2.7.85,3.94.89.4,1.78.79,2.68,1.18-.14-1.28.05-2.61.18-3.88.16,1.43.24,3.01.87,4.33.89.39,1.79.77,2.68,1.15-.23-1.44.01-2.99.15-4.4.08.85.16,1.7.29,2.55.12.8.28,1.62.67,2.33.52.22,1.03.44,1.55.66.36.15.72.3,1.08.45-.1-.59-.12-1.21-.1-1.82.03-1.01.13-2.02.22-3.02.08.91.15,1.83.27,2.74.12.87.26,1.8.71,2.57.88.37,1.76.74,2.64,1.1-.13-.63-.16-1.29-.15-1.95.02-1.14.14-2.28.23-3.42.08,1.04.15,2.09.28,3.13.12.92.27,1.91.78,2.7.87.35,1.73.71,2.6,1.06-.18-.73-.21-1.51-.19-2.28.03-1.21.14-2.41.23-3.61.08,1.11.14,2.22.26,3.32.12,1.02.26,2.17.86,3.03.85.34,1.71.68,2.56,1.01,0-.03-.02-.06-.03-.09-.18-.77-.21-1.58-.19-2.37.02-1.32.14-2.64.24-3.96.07,1.19.13,2.38.25,3.56.12,1.12.26,2.41.96,3.33.84.32,1.68.64,2.52.96-.02-.06-.04-.12-.06-.19-.2-.84-.23-1.71-.21-2.57.03-1.4.15-2.8.24-4.2.07,1.27.12,2.55.25,3.82.12,1.21.26,2.64,1.05,3.62.83.31,1.67.62,2.5.93-.04-.11-.08-.21-.11-.33-.23-.87-.26-1.79-.24-2.69.02-1.52.15-3.03.25-4.55.03.64.07,1.27.1,1.91.04.84.09,1.68.17,2.51.09.85.2,1.74.52,2.54.13.35.3.68.54.97.04.04.1.09.16.15,1.44.53,2.89,1.06,4.33,1.58,1.37.5,2.75,1,4.12,1.5,1.38.5,2.76.96,4.22,1.2,4.07.68,8.11-.03,12.11-.82l-.1.33c-2.1.68-4.24,1.26-6.43,1.55-2.92.39-5.87.21-8.68-.67-2.84-.89-5.64-1.96-8.43-2.99-1.79-.66-3.58-1.34-5.36-2.03-.02.02-.03.04-.05.05-.03-.03-.05-.07-.08-.1-1-.39-2.01-.78-3.01-1.17-.23-.09-.45-.18-.68-.27-.02.02-.05.05-.07.07-.04-.05-.07-.1-.1-.14-1.22-.48-2.44-.95-3.66-1.43-.03.02-.05.05-.08.07-.03-.04-.06-.09-.09-.14-1.24-.49-2.48-.98-3.71-1.47-.02.01-.03.03-.05.04-.01-.02-.03-.05-.04-.07-1.27-.51-2.53-1.03-3.79-1.55,0,0-.01,0-.02.01,0,0,0-.02-.01-.03-1.54-.64-3.08-1.3-4.61-1.98-1.02-.45-2.04-.92-3.05-1.39,0,0-.01,0-.02,0,0,0,0-.01,0-.02-1.68-.78-3.35-1.56-5.01-2.37-1.35-.66-2.7-1.35-4.03-2.04-.65-.34-1.29-.69-1.92-1.04-.61-.34-1.27-.64-1.83-1.05-1.14-.83-1.67-2.16-1.9-3.5-.24-1.4-.21-2.85-.17-4.26.06-1.83.18-3.65.2-5.48,0,.14.01.27.01.41.07,2.37-.02,4.74.13,7.1.08,1.36.24,2.83.94,4.03.71,1.21,1.99,1.69,3.19,2.29,2.12,1.06,4.26,2.06,6.42,3.04Zm2.3-24.09c-.43.51-.91.96-1.28,1.53-.45.69-.76,1.45-.94,2.25-.35,1.54-.33,3.12-.52,4.68-.66-2.81-.83-7.58,2.74-8.46Zm3.41,1.06c-.42.52-.89.98-1.25,1.55-.44.69-.75,1.45-.93,2.25-.34,1.54-.33,3.11-.51,4.66-.66-2.81-.83-7.51,2.7-8.46Zm3.5,1.06c-.41.53-.87.99-1.22,1.57-.43.7-.74,1.45-.92,2.25-.34,1.53-.32,3.1-.51,4.65-.67-2.82-.82-7.44,2.65-8.46Zm36.89-7.43c-1.87.09-3.73.19-5.6.28-5.99.3-11.98.61-17.97.97-2.97.18-5.94.36-8.89.64-1.37.13-2.74.27-4.09.49-1.01.16-2.21.3-3.06.9.46-.35,1.02-.53,1.57-.68.56-.16,1.14-.28,1.72-.39,1.47-.28,2.95-.46,4.43-.63,5.76-.63,11.57-.93,17.36-1.2,4.85-.22,9.7-.36,14.55-.38Zm21.74-54.86c-.25.19-.48.4-.7.63-1.18,1.23-2.02,2.81-2.77,4.32-.82,1.67-1.54,3.39-2.2,5.12-1.38,3.62-2.59,7.32-3.71,11.03-1.16,3.81-2.23,7.65-3.2,11.52-.93,3.72-1.79,7.46-2.54,11.22-.6,2.99-1.15,6-1.61,9.02,0-.09.02-.18.03-.28.36-3.44.88-6.87,1.51-10.27.72-3.88,1.63-7.72,2.64-11.53,1.03-3.92,2.13-7.83,3.33-11.7,1.15-3.72,2.41-7.41,3.96-10.98.72-1.66,1.51-3.31,2.46-4.85.75-1.22,1.61-2.43,2.79-3.27Zm6.26-.66c-1.01.23-2.03.39-3.04.59-1.1.22-2.19.69-3.08,1.38.51-1.05,1.79-1.76,2.9-1.96,1.04-.18,2.18-.27,3.22-.02Zm4.87,0c-.73.26-1.45.5-2.13.89-.7.41-1.26.95-1.86,1.49.39-1.65,2.33-2.84,3.99-2.38Zm.08,8.13c.54-1.1,1.18-2.15,1.78-3.22-.04.08-.07.17-.11.25-1.38,3.11-2.74,6.23-3.89,9.44-1.28,3.56-2.49,7.15-3.5,10.8-.58,2.09-1.13,4.18-1.66,6.28-.4-.04-.77-.08-1.1-.12.63-2.62,1.34-5.23,2.18-7.79,1.17-3.61,2.42-7.19,3.96-10.67.74-1.68,1.53-3.33,2.35-4.97Zm3.89-8.13c-.58.26-1.22.4-1.77.73-.64.38-1.12.93-1.71,1.37.36-1.55,1.92-2.53,3.48-2.11Zm3.29-16.95c-.58.69-.95,1.54-1.28,2.37-.71,1.8-1.28,3.67-1.9,5.51-.53,1.58-.92,3.43-.3,5.03-.49-.83-.62-1.8-.59-2.75.04-.99.28-1.95.57-2.89.29-.95.59-1.89.93-2.82.32-.89.68-1.77,1.13-2.6.37-.69.81-1.36,1.43-1.85Zm.19,17.14c-.46.3-.99.47-1.48.72-.55.28-.97.68-1.45,1.06.12-1.37,1.7-2.09,2.93-1.78Zm.42,8.48c.55-1.13,1.2-2.21,1.8-3.31-.04.08-.07.16-.11.24-1.4,3.18-2.74,6.38-3.94,9.65-1.35,3.67-2.54,7.41-3.62,11.16-.58,2.01-1.12,4.03-1.64,6.06-.35-.04-.7-.07-1.06-.11.63-2.52,1.31-5.03,2.1-7.51,1.2-3.74,2.5-7.44,4.06-11.04.76-1.74,1.57-3.44,2.4-5.15Zm2.7-8.29c-.57.57-1.35.95-2,1.42-.11-.97,1.17-1.67,2-1.42Zm1.17,8.61c.56-1.16,1.22-2.27,1.84-3.39-.04.09-.08.18-.12.27-1.43,3.26-2.8,6.54-4.02,9.88-1.35,3.7-2.58,7.47-3.64,11.26-.55,1.95-1.09,3.91-1.6,5.88-.32-.03-.68-.07-1.06-.11.63-2.5,1.32-4.98,2.1-7.44,1.2-3.75,2.5-7.47,4.06-11.08.77-1.78,1.59-3.52,2.44-5.26Zm2.08-8.44c-.38.49-.98.79-1.52,1.07-.21-.78.89-1.36,1.52-1.07Zm3.63.17c-.38.49-.98.79-1.52,1.07-.21-.78.89-1.36,1.52-1.07Zm.04,5.1c-.04.09-.08.18-.12.27-1.47,3.37-2.89,6.76-4.13,10.23-1.41,3.94-2.7,7.94-3.83,11.97-.38,1.34-.74,2.68-1.1,4.03-.4.07-.79.16-1.18.28.52-2.02,1.08-4.02,1.7-6,1.27-4,2.61-7.97,4.27-11.82.78-1.81,1.61-3.59,2.46-5.37.59-1.22,1.28-2.4,1.92-3.59Zm4.57-4.73c-.43.29-.94.44-1.41.66-.52.25-.96.6-1.45.89.23-1.26,1.7-1.87,2.86-1.56Zm1.44,8.58c.57-1.15,1.21-2.26,1.81-3.39l-.12.27c-.67,1.55-1.35,3.08-1.97,4.65-.7,1.75-1.38,3.51-2.02,5.28-1.43,3.9-2.63,7.87-3.85,11.84-.44,1.43-.84,2.88-1.24,4.33-.02,0-.05,0-.07,0l-.57-.06c-.14-.01-.26-.03-.4-.04.57-2.1,1.19-4.19,1.84-6.27,1.22-3.87,2.61-7.67,4.2-11.4.75-1.75,1.54-3.48,2.38-5.19Zm-.35-6.23c.36-1.55,1.92-2.53,3.48-2.11-.58.26-1.22.4-1.77.73-.64.38-1.12.93-1.71,1.37Zm4.76-19.31c-1.5,1.47-2.44,3.9-3.14,6.22-.7,2.32-.78,4.71-.43,6.04-1.54-2.74-.97-4.72-.11-7.3,1.17-3.51,3.68-4.96,3.68-4.96Zm3.39-.64c-1.1.21-1.92.85-2.56,1.76-.66.95-1.11,2.03-1.52,3.11-.44,1.15-.83,2.33-1.15,3.52-.3,1.14-.56,2.31-.6,3.49-.03.94.07,1.88.56,2.69-.73-.89-.9-2.06-.88-3.19.03-2.44.82-4.92,1.77-7.15.81-1.9,2.05-4.15,4.38-4.22Zm-3.39,6.02c.82-2.49,2.47-4.63,3-4.15.48.44-.67,2.66-1.38,4.76-.72,2.1-1.8,6.47-2.34,5.51-.54-.96-.23-3.22.72-6.13Zm5.66,11.82c-1.06.23-2.14.38-3.2.63-1.17.27-2.12,1.13-2.9,2,.34-1.19,1.46-2.28,2.66-2.56,1.09-.25,2.35-.32,3.44-.07Zm.85,9.21c-.1.21-.19.43-.29.65-1.37,3-2.59,6.05-3.71,9.15-1.23,3.41-2.34,6.85-3.38,10.31-.33,1.1-.63,2.2-.93,3.31-.59-.09-1.17-.17-1.74-.25.48-1.61.99-3.21,1.52-4.8,1.16-3.47,2.56-6.88,4.09-10.2,1.3-2.82,2.77-5.55,4.44-8.17Zm4.83-4.27c-.12.23-.24.46-.36.69-1.75,3.36-3.25,6.87-4.64,10.39-1.51,3.81-2.92,7.67-4.14,11.58-.56,1.78-1.07,3.58-1.56,5.39-.18-.03-.36-.05-.55-.08.62-2.29,1.27-4.56,1.99-6.81,1.24-3.87,2.64-7.68,4.26-11.4,1.46-3.35,3.08-6.64,4.99-9.75Zm1.05,2.67c-.74,1.67-1.46,3.34-2.13,5.04-1.52,3.86-2.8,7.82-3.81,11.85-.75,3-1.37,6.04-1.93,9.08-.58-.09-1.17-.18-1.76-.27.31-1.24.63-2.48.96-3.71,1.12-4.11,2.43-8.18,4.04-12.13,1.37-3.37,2.95-6.64,4.63-9.86ZM.8,158.5s.02-.28.12-.68c.05-.2.11-.43.2-.67.08-.24.18-.5.28-.75.11-.25.22-.49.34-.72.12-.23.24-.43.35-.61.22-.35.4-.57.4-.57,0,0-.02.28-.12.68-.05.2-.11.43-.19.67-.08.24-.17.5-.28.75-.11.25-.22.5-.34.72-.12.23-.23.43-.35.61-.22.35-.41.56-.41.56Z" style="fill: #fff;"/>
  <path d="m20.74,167.13s.02.02.02.02l-.02-.02Z" style="fill: #fff;"/>
  <path d="m52.41,185.04c.66,0,1.2.27,1.2.6,0,.33-.54.6-1.2.6s-1.2-.27-1.2-.6c0-.33.54-.6,1.2-.6Z" style="fill: #fff;"/>
  <path d="m28.12,167.28c-4.22-2.75-8.42-5.54-12.53-8.45,2.23,1.27,4.43,2.59,6.63,3.92,4.92,2.98,9.78,6.05,14.6,9.18,4.28,2.79,8.54,5.61,12.71,8.56-2.26-1.3-4.5-2.63-6.73-3.98-4.94-2.99-9.84-6.08-14.68-9.23Z" style="fill: #fff;"/>
  <path d="m24.76,166.88c-4.29-2.85-8.57-5.74-12.75-8.76,2.27,1.33,4.52,2.69,6.75,4.08,4.98,3.08,9.9,6.25,14.78,9.49,4.35,2.89,8.69,5.82,12.93,8.87-2.29-1.35-4.57-2.73-6.83-4.13-5.01-3.1-9.97-6.29-14.87-9.55Z" style="fill: #fff;"/>
  <path d="m6.85,156.14c2.3,1.37,4.58,2.77,6.84,4.2,5.04,3.17,10.03,6.43,14.98,9.75,4.38,2.95,8.74,5.93,13,9.04-2.33-1.39-4.64-2.82-6.94-4.27-5.07-3.19-10.08-6.45-15.05-9.8-4.32-2.91-8.62-5.86-12.83-8.93Z" style="fill: #fff;"/>
  <path d="m175.38,39.81c.26-.18.58-.29.9-.29.15,0,.31.03.45.07.09.03.13.05.2.07.06.03.14.07.2.1.26.15.46.37.58.61.13.24.2.49.25.72.16.96-.05,1.74-.18,2.26-.13.53-.21.83-.21.83,0,0-.04-.32-.05-.88-.01-.28,0-.6-.05-.96-.02-.35-.1-.74-.22-1.1-.13-.35-.35-.62-.58-.71,0,0-.02,0-.03,0-.01,0,0,0-.04-.02l-.1-.03h-.05s-.01-.02-.01-.02h0s.05.02.04.01h-.01c-.07-.01-.14-.01-.21,0-.1.01-.2.05-.32.14-.25.18-.54.61-.75,1.09-.11.24-.21.51-.29.77l-.07.22-.06.21-.13.44c-.06.19-.11.38-.17.57,0,.23.03.5.14.78.28.72.69,1.69,1.15,2.28.28.36.88.32.99.03.11-.28.52-1.12.61-1.28-.22,1.29-.64,3.01-1.01,4.49-.19.75-.77,3.11-1.73,3.08,1.75-1.31-.57-4.09-.88-5.51.25.54.6,1.02.91,1.53.19.31.46.86.75,1.2.12.14.36.04.33-.15-.16-1.28-1.23-3.23-1.91-4.28-.07.24-.14.48-.21.71-.17.55-.31,1.1-.48,1.6-.16.52-.31.99-.46,1.44-.08.22-.15.43-.22.63-.06.19-.12.37-.15.55-.08.35-.1.66-.08.92.01.26.06.47.11.6.02.07.04.12.06.16.02.03.02.05.02.05,0,0-.01-.02-.03-.05-.02-.03-.05-.08-.09-.14-.07-.13-.16-.32-.22-.59-.06-.27-.1-.6-.07-.98.02-.38.12-.8.21-1.26.19-.91.41-1.97.65-3.11.24-1.14.54-2.34.85-3.55.08-.3.16-.6.24-.9.09-.3.19-.6.32-.89.25-.57.57-1.14,1.1-1.51Z" style="fill: #fff;"/>
  <path d="m176.48,41.54s.01,0,.03,0c.02,0,.06,0,.1.02.08.03.2.08.31.21.05.07.1.15.12.25.02.1.02.22,0,.33-.05.22-.22.43-.44.53-.22.11-.5.1-.69,0-.1-.05-.17-.11-.25-.18-.07-.08-.11-.16-.14-.24-.05-.16-.03-.29,0-.37.03-.08.06-.12.06-.12,0,0,0,.05.03.12.03.07.08.16.16.23.04.04.09.07.13.09.04.02.11.04.16.05.11.01.21,0,.3-.05.09-.05.17-.12.22-.21.05-.09.07-.18.06-.29-.01-.1-.06-.2-.09-.27-.04-.07-.06-.11-.06-.11Z" style="fill: #fff;"/>
  <path d="m172.93,52.39s0,.05.03.12c.03.07.08.16.16.23.04.04.09.07.13.09.04.02.11.04.16.05.11.01.21,0,.3-.05.09-.05.17-.12.22-.21.05-.09.07-.18.06-.29-.01-.1-.06-.2-.09-.27-.04-.07-.06-.11-.06-.11,0,0,.01,0,.03,0,.02,0,.06,0,.1.02.08.03.2.08.31.21.05.07.1.15.12.25.02.1.02.22,0,.33-.05.22-.22.43-.44.53-.22.11-.5.1-.69,0-.1-.05-.17-.11-.25-.18-.07-.08-.11-.16-.14-.24-.05-.16-.03-.29,0-.37.03-.08.06-.12.06-.12Z" style="fill: #fff;"/>
  <path d="m106.02,145.14c-.5.3-1.15.23-1.58-.18-.31-.29-.5-.88-.22-1.25.08.62.76,1.07,1.34.77.66-.33.5-1.01.19-1.52,1.12.21,1.17,1.64.27,2.18Z" style="fill: #fff;"/>
  <path d="m101.64,162.62c-.29-.27-.47-.83-.19-1.18.08.53.63.92,1.15.72.28-.11.49-.38.51-.68.01-.27-.12-.5-.25-.73,1.11.14,1.08,1.58.24,2.06-.47.27-1.07.19-1.46-.19Z" style="fill: #fff;"/>
  <path d="m98.67,169.27c-.8.6-5.16,2.09-5.16,2.09-1.55.57-3.15,1.56-3.4,3.33-.19,1.35.29,2.31.77,2.31.31,0,.75-.08,1.2-.18-.1.04-.16.06-.16.06,0,0,.91-.15,2.25-.47.67-.16,1.45-.36,2.28-.63.41-.13.84-.27,1.26-.45.43-.17.85-.35,1.27-.56.42-.21.82-.46,1.2-.74.38-.28.72-.61.98-1.01.24-.38.41-.75.59-1.12.17-.36.31-.72.42-1.05.23-.66.33-1.24.38-1.64.03-.2.04-.36.05-.47,0-.11.01-.17.01-.17,0,0-.05.23-.16.61-.11.39-.28.93-.56,1.55-.04.1-.1.21-.15.31-.4-.39-1.26-1.23-1.58-1.72.55,1.31.97,2.41.57,3.49-.22.29-.52.55-.84.79-.35.25-.74.48-1.14.68-.35.18-.71.34-1.07.5-.22-.11-.4-.28-.36-.55.14-.98.26-2.46.37-3.1.05-.32.46-.92.77-1.34.06-.04.11-.07.15-.1.12-.09.25-.19.37-.3l1.48,2.55c0-.12-.91-2.64-1.04-2.99.41-.5.76-1.29.83-2.78-.23,1.14-.77,2.49-1.57,3.09Zm-2.71,1.64c.38.15.64.74.64,1.18,0,.57-.05.69-.34,2.25-.06.31-.25.59-.5.85.03-.81.11-3.14.12-3.23l-.74,3.75s-.08.06-.12.09c-.33.11-.64.22-.94.32-.18.06-.34.12-.5.17-.16-.05-.38-.14-.61-.27-.25.15-.54.25-.86.25-.87,0-1.57-.67-1.57-1.49s.7-1.49,1.57-1.49c.04,0,.07,0,.11.01.21-.45.48-.88.73-1.22,0,0,.01-.02.02-.03.72-.26,1.89-.7,2.99-1.13Z" style="fill: #fff;"/>
  <path d="m102.56,155.45c.18.6,1.44,2.4,1.63,2.62.27.31.52.07.68-.16.02-.1.04-.21.06-.31.03-.16.07-.31.1-.47-.23-1.15-1.77-3.86-1.77-3.86,0,0,2.01,2.77,2.3,1.44.03-.14.05-.21.06-.22.14-.63.28-1.22.41-1.74.32-1.32.58-2.2.58-2.2,0,0-.08.91-.28,2.26-.1.67-.22,1.46-.37,2.3-.08.42-.15.85-.24,1.29-.09.44-.18.88-.27,1.33-.1.44-.2.89-.29,1.32-.09.44-.2.86-.3,1.28-.2.83-.41,1.6-.59,2.25-.37,1.31-.67,2.17-.67,2.17,0,0,.13-.9.38-2.24.05-.29.11-.61.17-.94-.05-.97-.5-1.58-1.2-2.71-.75-1.21-1.62-.75-1.77.53,0,0,.66-4.15,1.04-7.7-.04,1.39.06,2.82.34,3.77Z" style="fill: #fff;"/>
  <path d="m92.25,175.16c.65-.29.51-.95.22-1.44,1.17.16,1.09,1.7.17,2.15-.5.24-1.1.12-1.47-.29-.26-.28-.4-.82-.14-1.15.08.57.68.97,1.22.73Z" style="fill: #fff;"/>
  <path d="m106.43,126.77c.04-.11.09-.25.16-.4.07-.15.16-.32.32-.47.3-.31.78-.49,1.26-.62.49-.13,1-.26,1.52-.4.52-.13,1.04-.27,1.53-.38.49-.12.95-.22,1.34-.31.39-.09.72-.15.95-.2.23-.04.36-.07.36-.07,0,0-.13.04-.35.12-.22.07-.54.18-.93.3s-.83.26-1.32.39c-.48.14-1,.28-1.52.41-.52.13-1.04.26-1.54.36-.24.06-.47.11-.68.19-.21.08-.39.18-.53.31-.29.26-.42.58-.53.78-.1.21-.17.33-.17.33,0,0,.04-.13.12-.35Z" style="fill: #fff;"/>
  <path d="m150.64,103.61c-1.29.46-2.62.82-3.95,1.17-1.36.35-2.73.69-4.12.92-2.86.48-5.71.84-8.6,1.03-5.05.33-10.13.09-15.18-.28,2.52.03,5.05.08,7.57.05,5.69-.06,11.42-.36,17.01-1.47,2.73-.54,5.43-1.2,8.09-2.05,2.13-.68,4.2-1.48,6.27-2.32-.97.46-1.93.94-2.92,1.35-1.38.57-2.76,1.1-4.17,1.6Z" style="fill: #fff;"/>
  <path d="m119.58,110.18c-.99,0-1.79.8-1.79,1.79,0,.56.26,1.05.66,1.38.12,1.31,1.52,2.89,4.25,4.31-1.9-.49-3.59-1.1-4.82-1.86-1.22-.76-2.06-4.83.37-6.18,1.97-1.1,8.4.03,12.72-.03-1.21.5-6.96.58-9.98,1.3-.33-.43-.84-.71-1.42-.71Z" style="fill: #fff;"/>
  <path d="m144.94,106.1c-2.74.56-5.51,1-8.3,1.23-4.9.4-9.8.29-14.7-.09,2.45.03,4.9.05,7.35,0,5.5-.11,11.03-.64,16.41-1.83,2.64-.58,5.27-1.3,7.8-2.24,1.24-.46,2.46-.94,3.68-1.45.81-.34,1.59-.73,2.39-1.1-2.25,1.21-4.53,2.39-6.94,3.25-2.52.89-5.06,1.7-7.68,2.23Z" style="fill: #fff;"/>
  <path d="m171.95,101.28c-.55.29-1.24.18-1.69-.24-.35-.33-.56-.97-.27-1.4.06.75.87,1.29,1.57.94.34-.17.58-.53.57-.92-.01-.34-.2-.61-.38-.89.52.12.94.52,1,1.06.07.6-.28,1.17-.8,1.44Z" style="fill: #fff;"/>
  <path d="m120.16,112.98c-.47.26-1.06.18-1.45-.19-.28-.27-.46-.83-.18-1.17.08.52.62.9,1.14.71.27-.11.49-.37.5-.67.01-.27-.12-.5-.24-.73,1.1.13,1.08,1.57.24,2.04Z" style="fill: #fff;"/>
  <path d="m150.02,117.1c-.45-1.12-1.33-2.15-2.09-3.09-.74-.92-2.75-3.6-3.96-3.96-1.31-.39.24,1.53.62,2.17.86,1.46,1.69,2.99,2.65,4.42-1.92-1.97-3.66-4.03-5.82-5.77-1.37-1.11-2.42-1.24-4.02-1.68,3.77-.08,11.87-1.48,14.24-2.58-.88.46-3.2,1.71-3.76,2.24-.9.85,1.87,3.74,2.48,4.67.42.63,2.9,4.05,3.72,2.11.22-.53-.05-1,.72-1.11.92-.14,1.59.61,2.33.99,1.01.52,1.97.13,3.03-.06-4.98,2.96-17.11,4.44-17.11,4.44,0,0,7.5-1.46,6.97-2.79Z" style="fill: #fff;"/>
  <path d="m151.65,106.61c.21-.11.34-.18.34-.18-.09.06-.21.12-.34.18Z" style="fill: #fff;"/>
  <path d="m164.45,108.39s-.15-.15-.38-.39c.24.24.38.39.38.39Z" style="fill: #fff;"/>
  <path d="m164.08,107.99c-1.02-1.01-3.98-3.57-7.4-3.14,1.74-.6,5.48-2.67,7.08-4.24,0,0-2.83,2.89-2.76,3.48.08.66,2.21,2.97,3.08,3.9Z" style="fill: #fff;"/>
  <path d="m172.03,92.25c.07.66.76,1.14,1.4.86.3-.13.53-.42.55-.75.03-.35-.16-.63-.33-.91,1.17.24,1.23,1.74.27,2.3-.53.31-1.2.23-1.65-.19-.34-.31-.53-.91-.24-1.32Z" style="fill: #fff;"/>
  <path d="m169.35,109.72c1.24-1.18,2.24-2.6,3.31-3.94-.43.82-.91,1.63-1.43,2.4-.6.89-1.29,1.73-2.09,2.44-.79.71-1.7,1.3-2.6,1.85-1.38.84-2.81,1.62-4.28,2.3.7-.52,1.44-1,2.16-1.48,1.68-1.11,3.46-2.17,4.92-3.56Z" style="fill: #fff;"/>
  <path d="m129.86,119.12c-.24-.05-.49-.1-.72-.15-.24-.05-.47-.12-.7-.17-.45-.12-.86-.25-1.22-.38-.7-.24-1.15-.47-1.15-.47,0,0,.13.01.34.04.22.03.52.07.89.13.37.06.79.13,1.24.21.45.08.93.18,1.42.26.24.05.48.09.72.14.24.04.47.1.7.14.45.09.87.18,1.23.27.36.08.66.16.87.21.21.06.33.09.33.09,0,0-.5.04-1.24,0-.37-.02-.81-.05-1.27-.1-.23-.03-.47-.05-.71-.1-.24-.04-.49-.08-.73-.12Z" style="fill: #fff;"/>
  <path d="m143.89,61.23s0,0,0,0c0,0,0,0,0,0-.02.02-.02.02,0,0Z" style="fill: #fff;"/>
  <path d="m143.38,56.92c.27-.31.72-.39,1.04-.67.4-.35.58-.75.78-1.21.18,1.01.19,2.1-.06,3.31-.24,1.16-.53,1.99-1.25,2.87.19-.51.21-1.17,0-1.69-.35-.85-1.33-1.68-.51-2.62Z" style="fill: #fff;"/>
  <path d="m134.29,58.12c.85.39,1.74.4,2.59.77.91.4,1.66,1.1,2.63,1.39.24.07.49.08.74.15.33.09.88.55,1.17.55-.84,0-3.39-.39-4.28-.52-1.54-.24-3.1-.44-4.64-.72-.58-.11-1-.63-.96-1.22.1-1.67.37-5.02.53-5.83.11,1.83.28,4.55,2.23,5.43Z" style="fill: #fff;"/>
  <path d="m129.65,59.15c-2.29-.29-7.49-.96-7.52-1.03-.03-.1.73-5.43.73-5.43.7,1.96-.13,3.19,3.68,3.25,3.7.06,3.17-1.43,4.8-2.93l-.53,5.21c-.06.58-.59,1.01-1.17.93Z" style="fill: #fff;"/>
  <ellipse cx="124.23" cy="52.46" rx=".53" ry=".56" transform="translate(66.58 174.37) rotate(-87.59)" style="fill: #fff;"/>
</svg>